<svg xmlns="http://www.w3.org/2000/svg" viewBox="0 0 1254 1254" role="img" aria-label="Logo Mario y Gema" fill="none">
  <title>Logo Mario y Gema</title>
  <desc>Logo vectorizado en negro, sin fondo y sin fecha.</desc>
  <g fill="#000000" fill-rule="evenodd">
    <path d="M 200.0 714.0 L 200.0 715.0 L 354.0 715.0 L 354.0 714.0 Z M 926.0 715.0 L 1059.0 715.0 L 1060.0 714.0 L 928.0 714.0 L 927.0 713.0 Z M 886.0 700.0 L 885.0 705.0 L 882.0 710.0 L 882.0 712.0 L 879.0 717.0 L 879.0 719.0 L 875.0 727.0 L 878.0 727.0 L 879.0 723.0 L 882.0 720.0 L 894.0 720.0 L 896.0 722.0 L 897.0 726.0 L 898.0 727.0 L 900.0 727.0 L 898.0 723.0 L 898.0 721.0 L 895.0 716.0 L 895.0 714.0 L 893.0 711.0 L 893.0 709.0 L 890.0 704.0 L 889.0 700.0 Z M 888.0 704.0 L 891.0 709.0 L 892.0 714.0 L 894.0 717.0 L 892.0 719.0 L 883.0 719.0 L 882.0 718.0 L 882.0 716.0 L 883.0 715.0 L 884.0 710.0 L 886.0 706.0 Z M 816.0 700.0 L 816.0 727.0 L 818.0 727.0 L 818.0 707.0 L 819.0 706.0 L 821.0 708.0 L 822.0 711.0 L 829.0 721.0 L 831.0 720.0 L 835.0 712.0 L 840.0 706.0 L 841.0 707.0 L 841.0 727.0 L 843.0 727.0 L 843.0 700.0 L 841.0 700.0 L 830.0 717.0 L 829.0 717.0 L 827.0 715.0 L 818.0 700.0 Z M 767.0 700.0 L 767.0 727.0 L 783.0 727.0 L 783.0 725.0 L 770.0 725.0 L 769.0 724.0 L 769.0 715.0 L 770.0 714.0 L 781.0 714.0 L 781.0 712.0 L 779.0 712.0 L 778.0 713.0 L 777.0 712.0 L 773.0 712.0 L 772.0 713.0 L 769.0 711.0 L 769.0 703.0 L 770.0 702.0 L 783.0 702.0 L 783.0 700.0 Z M 717.0 700.0 L 715.0 701.0 L 709.0 708.0 L 709.0 711.0 L 708.0 712.0 L 709.0 719.0 L 710.0 721.0 L 717.0 727.0 L 728.0 727.0 L 733.0 724.0 L 733.0 713.0 L 724.0 713.0 L 723.0 714.0 L 723.0 715.0 L 730.0 715.0 L 732.0 719.0 L 731.0 720.0 L 731.0 722.0 L 729.0 724.0 L 725.0 725.0 L 724.0 726.0 L 721.0 726.0 L 720.0 725.0 L 716.0 724.0 L 712.0 720.0 L 710.0 713.0 L 711.0 712.0 L 711.0 709.0 L 712.0 707.0 L 718.0 702.0 L 721.0 702.0 L 722.0 701.0 L 723.0 702.0 L 726.0 702.0 L 731.0 706.0 L 733.0 704.0 L 727.0 700.0 Z M 658.0 700.0 L 655.0 704.0 L 655.0 708.0 L 658.0 712.0 L 656.0 713.0 L 652.0 718.0 L 652.0 722.0 L 653.0 724.0 L 656.0 727.0 L 659.0 727.0 L 660.0 728.0 L 662.0 727.0 L 666.0 727.0 L 669.0 724.0 L 670.0 724.0 L 673.0 727.0 L 676.0 727.0 L 672.0 723.0 L 672.0 720.0 L 674.0 717.0 L 674.0 715.0 L 672.0 715.0 L 671.0 719.0 L 669.0 720.0 L 663.0 714.0 L 663.0 712.0 L 665.0 711.0 L 668.0 707.0 L 668.0 703.0 L 665.0 700.0 Z M 654.0 718.0 L 658.0 714.0 L 660.0 714.0 L 668.0 722.0 L 668.0 723.0 L 663.0 726.0 L 659.0 726.0 L 654.0 722.0 Z M 660.0 701.0 L 663.0 701.0 L 666.0 704.0 L 666.0 707.0 L 662.0 711.0 L 660.0 711.0 L 657.0 707.0 L 657.0 704.0 Z M 598.0 701.0 L 592.0 708.0 L 591.0 715.0 L 592.0 716.0 L 592.0 719.0 L 593.0 721.0 L 600.0 727.0 L 610.0 727.0 L 614.0 725.0 L 619.0 719.0 L 619.0 709.0 L 617.0 705.0 L 614.0 702.0 L 610.0 700.0 L 601.0 700.0 L 600.0 701.0 Z M 599.0 703.0 L 601.0 703.0 L 602.0 702.0 L 610.0 702.0 L 616.0 707.0 L 617.0 709.0 L 617.0 713.0 L 618.0 714.0 L 617.0 715.0 L 617.0 718.0 L 616.0 720.0 L 612.0 724.0 L 605.0 726.0 L 604.0 725.0 L 601.0 725.0 L 599.0 724.0 L 595.0 720.0 L 593.0 712.0 L 594.0 711.0 L 595.0 707.0 Z M 555.0 700.0 L 554.0 701.0 L 555.0 702.0 L 554.0 703.0 L 554.0 709.0 L 555.0 710.0 L 555.0 713.0 L 554.0 714.0 L 554.0 727.0 L 557.0 727.0 L 557.0 700.0 Z M 498.0 700.0 L 498.0 727.0 L 500.0 727.0 L 500.0 718.0 L 501.0 717.0 L 509.0 717.0 L 514.0 724.0 L 515.0 727.0 L 518.0 727.0 L 518.0 726.0 L 512.0 718.0 L 512.0 717.0 L 514.0 715.0 L 515.0 715.0 L 518.0 711.0 L 518.0 705.0 L 517.0 703.0 L 512.0 700.0 Z M 500.0 703.0 L 502.0 701.0 L 503.0 702.0 L 512.0 702.0 L 514.0 703.0 L 516.0 706.0 L 516.0 711.0 L 511.0 715.0 L 501.0 715.0 L 500.0 714.0 Z M 453.0 700.0 L 451.0 703.0 L 451.0 705.0 L 448.0 710.0 L 448.0 712.0 L 445.0 717.0 L 445.0 719.0 L 441.0 727.0 L 444.0 727.0 L 445.0 723.0 L 448.0 720.0 L 460.0 720.0 L 464.0 727.0 L 466.0 727.0 L 462.0 719.0 L 462.0 717.0 L 460.0 714.0 L 460.0 712.0 L 458.0 709.0 L 455.0 700.0 Z M 454.0 704.0 L 456.0 707.0 L 456.0 709.0 L 460.0 717.0 L 458.0 719.0 L 449.0 719.0 L 448.0 718.0 L 448.0 715.0 L 450.0 712.0 L 450.0 710.0 L 452.0 706.0 Z M 381.0 700.0 L 381.0 727.0 L 383.0 727.0 L 383.0 707.0 L 384.0 706.0 L 386.0 707.0 L 394.0 721.0 L 396.0 721.0 L 399.0 715.0 L 401.0 713.0 L 402.0 710.0 L 404.0 708.0 L 404.0 707.0 L 406.0 706.0 L 407.0 707.0 L 407.0 727.0 L 409.0 727.0 L 409.0 700.0 L 406.0 700.0 L 402.0 708.0 L 395.0 717.0 L 394.0 717.0 L 391.0 713.0 L 384.0 700.0 Z M 789.0 659.0 L 781.0 658.0 L 780.0 659.0 L 765.0 659.0 L 764.0 660.0 L 789.0 660.0 Z M 824.0 650.0 L 822.0 649.0 L 821.0 650.0 L 819.0 650.0 L 816.0 652.0 L 813.0 652.0 L 812.0 653.0 L 817.0 653.0 L 822.0 650.0 L 824.0 651.0 Z M 855.0 650.0 L 853.0 650.0 L 846.0 647.0 L 843.0 647.0 L 840.0 649.0 L 836.0 650.0 L 835.0 653.0 L 833.0 655.0 L 835.0 655.0 L 837.0 653.0 L 840.0 653.0 L 840.0 652.0 L 838.0 653.0 L 836.0 652.0 L 839.0 649.0 L 847.0 648.0 L 853.0 651.0 L 855.0 651.0 Z M 583.0 645.0 L 582.0 644.0 L 581.0 646.0 L 583.0 646.0 Z M 377.0 645.0 L 375.0 644.0 L 373.0 645.0 L 373.0 646.0 L 375.0 645.0 L 377.0 646.0 Z M 708.0 643.0 L 708.0 647.0 L 709.0 648.0 L 709.0 643.0 Z M 610.0 643.0 L 608.0 643.0 L 607.0 644.0 L 607.0 654.0 L 607.0 645.0 L 608.0 644.0 L 610.0 645.0 L 610.0 653.0 L 611.0 653.0 L 611.0 644.0 Z M 698.0 641.0 L 696.0 641.0 L 694.0 643.0 L 693.0 654.0 L 694.0 654.0 L 694.0 646.0 L 696.0 642.0 L 698.0 643.0 L 698.0 647.0 L 699.0 647.0 L 699.0 643.0 Z M 638.0 641.0 L 637.0 643.0 L 637.0 651.0 L 638.0 651.0 L 638.0 648.0 L 637.0 647.0 L 639.0 643.0 L 640.0 644.0 L 640.0 651.0 L 641.0 650.0 L 641.0 645.0 L 640.0 644.0 L 640.0 642.0 Z M 625.0 641.0 L 623.0 644.0 L 623.0 652.0 L 624.0 652.0 L 624.0 644.0 L 626.0 643.0 L 627.0 644.0 L 627.0 653.0 L 627.0 642.0 Z M 546.0 644.0 L 548.0 641.0 L 550.0 641.0 L 551.0 640.0 L 553.0 641.0 L 553.0 643.0 L 555.0 643.0 L 557.0 640.0 L 560.0 640.0 L 559.0 639.0 L 557.0 639.0 L 556.0 640.0 L 554.0 640.0 L 553.0 639.0 L 548.0 639.0 L 546.0 640.0 Z M 946.0 636.0 L 943.0 636.0 L 938.0 640.0 L 940.0 640.0 L 943.0 637.0 L 945.0 637.0 Z M 824.0 637.0 L 824.0 638.0 L 827.0 636.0 L 831.0 636.0 L 832.0 635.0 L 834.0 635.0 L 837.0 638.0 L 839.0 638.0 L 840.0 639.0 L 841.0 638.0 L 833.0 634.0 L 829.0 636.0 L 825.0 636.0 Z M 624.0 635.0 L 624.0 637.0 L 625.0 636.0 L 628.0 637.0 L 626.0 635.0 L 626.0 634.0 Z M 639.0 633.0 L 638.0 634.0 L 638.0 636.0 L 639.0 637.0 Z M 698.0 632.0 L 697.0 632.0 L 697.0 637.0 L 698.0 636.0 Z M 733.0 627.0 L 732.0 627.0 L 732.0 643.0 L 733.0 642.0 Z M 467.0 627.0 L 467.0 634.0 L 468.0 633.0 L 468.0 628.0 Z M 626.0 619.0 L 625.0 619.0 L 625.0 621.0 L 624.0 622.0 L 624.0 632.0 L 624.0 625.0 L 626.0 623.0 L 627.0 624.0 L 627.0 628.0 L 628.0 628.0 Z M 700.0 618.0 L 700.0 625.0 L 701.0 626.0 L 701.0 618.0 Z M 696.0 617.0 L 696.0 625.0 L 697.0 624.0 L 696.0 623.0 L 697.0 621.0 L 696.0 620.0 L 697.0 619.0 Z M 638.0 617.0 L 637.0 619.0 L 637.0 625.0 L 638.0 626.0 L 638.0 620.0 L 639.0 619.0 L 640.0 620.0 L 640.0 626.0 L 640.0 618.0 Z M 608.0 614.0 L 608.0 616.0 L 607.0 617.0 L 607.0 640.0 L 606.0 641.0 L 611.0 641.0 L 611.0 632.0 L 613.0 630.0 L 613.0 628.0 L 611.0 627.0 L 611.0 623.0 L 610.0 623.0 L 610.0 639.0 L 609.0 640.0 L 607.0 638.0 L 607.0 618.0 L 609.0 617.0 L 609.0 614.0 Z M 688.0 613.0 L 688.0 635.0 L 687.0 636.0 L 685.0 636.0 L 683.0 640.0 L 683.0 655.0 L 683.0 641.0 L 685.0 639.0 L 687.0 641.0 L 687.0 644.0 L 688.0 643.0 L 687.0 642.0 L 687.0 639.0 L 688.0 638.0 Z M 685.0 639.0 L 686.0 638.0 L 687.0 639.0 L 686.0 640.0 Z M 639.0 611.0 L 638.0 612.0 L 639.0 614.0 Z M 289.0 609.0 L 289.0 615.0 L 293.0 615.0 L 293.0 609.0 Z M 291.0 610.0 L 292.0 611.0 L 292.0 613.0 L 291.0 614.0 L 290.0 613.0 L 290.0 611.0 Z M 660.0 607.0 L 659.0 607.0 L 659.0 615.0 L 660.0 616.0 L 658.0 618.0 L 658.0 623.0 L 656.0 625.0 L 656.0 637.0 L 657.0 636.0 L 656.0 635.0 L 656.0 632.0 L 657.0 631.0 L 657.0 624.0 L 660.0 620.0 Z M 667.0 605.0 L 664.0 611.0 L 664.0 618.0 L 663.0 619.0 L 663.0 622.0 L 664.0 623.0 L 663.0 624.0 L 663.0 626.0 L 664.0 627.0 L 664.0 614.0 L 665.0 613.0 L 665.0 610.0 L 668.0 606.0 L 670.0 608.0 L 670.0 610.0 L 671.0 611.0 L 671.0 615.0 L 672.0 616.0 L 672.0 628.0 L 672.0 612.0 L 671.0 611.0 L 670.0 606.0 L 669.0 605.0 Z M 193.0 597.0 L 194.0 599.0 L 197.0 599.0 L 197.0 596.0 L 194.0 596.0 Z M 175.0 596.0 L 175.0 599.0 L 176.0 599.0 L 176.0 596.0 Z M 441.0 591.0 L 441.0 593.0 L 439.0 595.0 L 439.0 618.0 L 437.0 620.0 L 432.0 620.0 L 431.0 619.0 L 431.0 610.0 L 430.0 609.0 L 428.0 609.0 L 428.0 611.0 L 430.0 612.0 L 430.0 620.0 L 435.0 620.0 L 436.0 621.0 L 440.0 619.0 L 439.0 617.0 L 440.0 616.0 L 440.0 596.0 L 442.0 594.0 L 442.0 592.0 L 443.0 591.0 L 447.0 591.0 L 449.0 593.0 L 449.0 595.0 L 451.0 595.0 L 452.0 596.0 L 452.0 623.0 L 458.0 623.0 L 459.0 625.0 L 460.0 625.0 L 459.0 622.0 L 455.0 622.0 L 453.0 620.0 L 454.0 619.0 L 453.0 618.0 L 453.0 595.0 L 450.0 593.0 L 450.0 591.0 Z M 686.0 590.0 L 684.0 594.0 L 684.0 604.0 L 686.0 605.0 L 686.0 607.0 L 683.0 611.0 L 683.0 632.0 L 682.0 633.0 L 681.0 632.0 L 681.0 600.0 L 680.0 601.0 L 680.0 605.0 L 681.0 606.0 L 681.0 634.0 L 680.0 635.0 L 681.0 636.0 L 680.0 637.0 L 680.0 657.0 L 681.0 658.0 L 681.0 634.0 L 682.0 633.0 L 683.0 634.0 L 683.0 614.0 L 684.0 613.0 L 686.0 616.0 L 686.0 628.0 L 686.0 611.0 L 688.0 610.0 L 688.0 608.0 L 686.0 607.0 L 686.0 605.0 L 687.0 604.0 L 688.0 605.0 L 688.0 601.0 L 687.0 600.0 L 688.0 599.0 L 688.0 597.0 L 686.0 593.0 Z M 686.0 593.0 L 687.0 594.0 L 687.0 603.0 L 686.0 604.0 L 684.0 602.0 L 684.0 596.0 Z M 290.0 582.0 L 290.0 586.0 L 293.0 586.0 L 293.0 582.0 Z M 290.0 584.0 L 291.0 583.0 L 292.0 584.0 L 291.0 585.0 Z M 274.0 580.0 L 274.0 583.0 L 277.0 583.0 L 277.0 580.0 Z M 1123.0 543.0 L 1122.0 543.0 L 1120.0 541.0 L 1114.0 541.0 L 1113.0 542.0 L 1110.0 542.0 L 1109.0 543.0 L 1075.0 543.0 L 1073.0 541.0 L 1073.0 540.0 L 1072.0 540.0 L 1069.0 537.0 L 1065.0 537.0 L 1059.0 532.0 L 1058.0 528.0 L 1057.0 527.0 L 1057.0 521.0 L 1059.0 520.0 L 1059.0 518.0 L 1058.0 518.0 L 1057.0 516.0 L 1056.0 516.0 L 1056.0 517.0 L 1054.0 519.0 L 1056.0 521.0 L 1056.0 528.0 L 1055.0 529.0 L 1055.0 531.0 L 1048.0 537.0 L 1041.0 539.0 L 1040.0 540.0 L 1040.0 542.0 L 1037.0 544.0 L 1010.0 544.0 L 1009.0 545.0 L 999.0 545.0 L 997.0 543.0 L 995.0 543.0 L 994.0 544.0 L 988.0 545.0 L 988.0 548.0 L 987.0 549.0 L 987.0 591.0 L 986.0 592.0 L 986.0 639.0 L 985.0 640.0 L 985.0 648.0 L 983.0 651.0 L 983.0 657.0 L 984.0 658.0 L 983.0 659.0 L 880.0 659.0 L 878.0 658.0 L 873.0 652.0 L 874.0 648.0 L 870.0 643.0 L 871.0 642.0 L 870.0 641.0 L 870.0 635.0 L 872.0 633.0 L 879.0 633.0 L 880.0 634.0 L 892.0 634.0 L 893.0 633.0 L 898.0 633.0 L 899.0 634.0 L 902.0 634.0 L 903.0 635.0 L 903.0 648.0 L 901.0 650.0 L 900.0 650.0 L 905.0 650.0 L 907.0 649.0 L 907.0 648.0 L 909.0 646.0 L 914.0 646.0 L 915.0 645.0 L 920.0 644.0 L 914.0 644.0 L 913.0 643.0 L 913.0 637.0 L 912.0 636.0 L 912.0 624.0 L 913.0 623.0 L 913.0 618.0 L 914.0 617.0 L 915.0 612.0 L 917.0 610.0 L 917.0 609.0 L 921.0 605.0 L 927.0 602.0 L 932.0 602.0 L 933.0 603.0 L 935.0 603.0 L 942.0 609.0 L 942.0 610.0 L 944.0 612.0 L 944.0 614.0 L 946.0 618.0 L 946.0 627.0 L 945.0 628.0 L 943.0 628.0 L 942.0 627.0 L 938.0 628.0 L 932.0 635.0 L 931.0 637.0 L 931.0 640.0 L 927.0 643.0 L 925.0 643.0 L 924.0 644.0 L 926.0 645.0 L 929.0 645.0 L 930.0 646.0 L 933.0 646.0 L 935.0 648.0 L 938.0 648.0 L 939.0 649.0 L 951.0 649.0 L 952.0 650.0 L 958.0 650.0 L 959.0 651.0 L 958.0 653.0 L 953.0 653.0 L 952.0 654.0 L 948.0 654.0 L 948.0 655.0 L 950.0 654.0 L 963.0 654.0 L 964.0 655.0 L 970.0 654.0 L 971.0 655.0 L 973.0 655.0 L 973.0 654.0 L 965.0 654.0 L 964.0 653.0 L 961.0 653.0 L 959.0 650.0 L 960.0 649.0 L 965.0 648.0 L 960.0 648.0 L 959.0 649.0 L 947.0 649.0 L 946.0 648.0 L 939.0 648.0 L 938.0 647.0 L 940.0 645.0 L 944.0 645.0 L 947.0 642.0 L 953.0 642.0 L 949.0 642.0 L 948.0 640.0 L 950.0 637.0 L 956.0 634.0 L 960.0 634.0 L 961.0 635.0 L 962.0 634.0 L 964.0 634.0 L 965.0 635.0 L 962.0 638.0 L 964.0 638.0 L 968.0 633.0 L 971.0 633.0 L 974.0 636.0 L 974.0 639.0 L 976.0 640.0 L 976.0 642.0 L 977.0 640.0 L 975.0 637.0 L 975.0 635.0 L 972.0 632.0 L 971.0 632.0 L 964.0 624.0 L 960.0 623.0 L 959.0 622.0 L 956.0 622.0 L 955.0 621.0 L 955.0 615.0 L 954.0 614.0 L 954.0 611.0 L 951.0 604.0 L 951.0 598.0 L 952.0 597.0 L 957.0 597.0 L 958.0 598.0 L 964.0 598.0 L 965.0 599.0 L 977.0 600.0 L 976.0 599.0 L 971.0 599.0 L 970.0 598.0 L 964.0 598.0 L 963.0 597.0 L 953.0 596.0 L 951.0 594.0 L 951.0 593.0 L 949.0 593.0 L 947.0 595.0 L 941.0 595.0 L 940.0 594.0 L 917.0 593.0 L 916.0 592.0 L 910.0 592.0 L 909.0 591.0 L 907.0 591.0 L 906.0 592.0 L 895.0 592.0 L 894.0 591.0 L 869.0 591.0 L 868.0 590.0 L 864.0 590.0 L 863.0 591.0 L 847.0 591.0 L 846.0 589.0 L 848.0 585.0 L 848.0 576.0 L 846.0 572.0 L 846.0 568.0 L 843.0 564.0 L 843.0 561.0 L 841.0 558.0 L 837.0 558.0 L 834.0 561.0 L 834.0 563.0 L 830.0 567.0 L 826.0 576.0 L 825.0 574.0 L 818.0 573.0 L 813.0 576.0 L 812.0 579.0 L 810.0 581.0 L 810.0 584.0 L 808.0 587.0 L 808.0 591.0 L 807.0 592.0 L 807.0 594.0 L 808.0 595.0 L 806.0 597.0 L 804.0 597.0 L 801.0 599.0 L 800.0 602.0 L 796.0 606.0 L 796.0 608.0 L 795.0 609.0 L 796.0 621.0 L 797.0 622.0 L 797.0 626.0 L 798.0 627.0 L 798.0 630.0 L 799.0 631.0 L 795.0 634.0 L 792.0 635.0 L 789.0 638.0 L 787.0 647.0 L 783.0 651.0 L 783.0 653.0 L 782.0 654.0 L 783.0 655.0 L 784.0 651.0 L 787.0 648.0 L 793.0 647.0 L 797.0 644.0 L 801.0 646.0 L 805.0 644.0 L 812.0 646.0 L 812.0 645.0 L 808.0 644.0 L 805.0 641.0 L 803.0 641.0 L 802.0 640.0 L 800.0 640.0 L 796.0 643.0 L 792.0 643.0 L 791.0 644.0 L 789.0 643.0 L 789.0 641.0 L 794.0 635.0 L 796.0 635.0 L 799.0 632.0 L 805.0 633.0 L 808.0 629.0 L 811.0 628.0 L 811.0 626.0 L 815.0 622.0 L 817.0 622.0 L 818.0 621.0 L 824.0 621.0 L 827.0 625.0 L 826.0 629.0 L 828.0 628.0 L 830.0 629.0 L 832.0 627.0 L 833.0 628.0 L 837.0 628.0 L 840.0 630.0 L 840.0 633.0 L 847.0 633.0 L 851.0 635.0 L 853.0 637.0 L 851.0 639.0 L 848.0 640.0 L 848.0 641.0 L 850.0 640.0 L 851.0 641.0 L 855.0 642.0 L 858.0 640.0 L 864.0 640.0 L 866.0 642.0 L 867.0 642.0 L 873.0 648.0 L 873.0 649.0 L 871.0 652.0 L 870.0 651.0 L 862.0 651.0 L 862.0 652.0 L 864.0 651.0 L 871.0 652.0 L 873.0 654.0 L 874.0 654.0 L 876.0 657.0 L 872.0 659.0 L 830.0 659.0 L 830.0 660.0 L 992.0 660.0 L 993.0 661.0 L 995.0 660.0 L 999.0 660.0 L 1000.0 661.0 L 1000.0 665.0 L 1004.0 665.0 L 1004.0 661.0 L 1005.0 660.0 L 1039.0 660.0 L 1040.0 661.0 L 1040.0 665.0 L 1045.0 665.0 L 1044.0 662.0 L 1046.0 660.0 L 1138.0 660.0 L 1138.0 659.0 L 1125.0 659.0 L 1124.0 658.0 L 1124.0 650.0 L 1122.0 648.0 Z M 1042.0 657.0 L 1044.0 659.0 L 1044.0 661.0 L 1042.0 664.0 L 1041.0 663.0 L 1041.0 658.0 Z M 1002.0 657.0 L 1003.0 658.0 L 1003.0 663.0 L 1002.0 664.0 L 1001.0 663.0 L 1001.0 658.0 Z M 1044.0 652.0 L 1046.0 650.0 L 1107.0 650.0 L 1108.0 651.0 L 1108.0 658.0 L 1107.0 659.0 L 1045.0 659.0 L 1044.0 658.0 Z M 1004.0 651.0 L 1005.0 650.0 L 1039.0 650.0 L 1040.0 651.0 L 1040.0 658.0 L 1039.0 659.0 L 1005.0 659.0 L 1004.0 658.0 Z M 995.0 650.0 L 999.0 650.0 L 1000.0 651.0 L 1000.0 658.0 L 999.0 659.0 L 995.0 659.0 L 994.0 658.0 L 994.0 651.0 Z M 905.0 646.0 L 906.0 648.0 L 904.0 649.0 L 903.0 648.0 Z M 788.0 646.0 L 789.0 645.0 L 790.0 646.0 L 789.0 647.0 Z M 794.0 643.0 L 795.0 644.0 L 793.0 646.0 L 792.0 646.0 L 791.0 645.0 L 793.0 643.0 Z M 798.0 643.0 L 800.0 641.0 L 803.0 641.0 L 805.0 643.0 L 802.0 645.0 L 800.0 645.0 Z M 852.0 640.0 L 852.0 639.0 L 855.0 637.0 L 857.0 637.0 L 859.0 639.0 L 855.0 641.0 L 853.0 641.0 Z M 1004.0 632.0 L 1005.0 631.0 L 1012.0 631.0 L 1013.0 630.0 L 1039.0 630.0 L 1040.0 631.0 L 1040.0 648.0 L 1039.0 649.0 L 1005.0 649.0 L 1004.0 648.0 Z M 967.0 631.0 L 968.0 630.0 L 969.0 631.0 L 968.0 632.0 Z M 1001.0 629.0 L 1002.0 628.0 L 1013.0 628.0 L 1014.0 627.0 L 1042.0 627.0 L 1043.0 628.0 L 1043.0 639.0 L 1044.0 640.0 L 1044.0 642.0 L 1043.0 643.0 L 1044.0 645.0 L 1044.0 655.0 L 1043.0 656.0 L 1041.0 655.0 L 1041.0 629.0 L 1024.0 629.0 L 1023.0 630.0 L 1003.0 630.0 L 1003.0 655.0 L 1002.0 656.0 L 1001.0 655.0 Z M 966.0 627.0 L 966.0 629.0 L 967.0 630.0 L 965.0 634.0 L 964.0 633.0 L 962.0 633.0 L 961.0 634.0 L 959.0 633.0 L 957.0 634.0 L 954.0 634.0 L 950.0 636.0 L 948.0 638.0 L 947.0 641.0 L 943.0 644.0 L 940.0 644.0 L 937.0 646.0 L 933.0 646.0 L 932.0 645.0 L 929.0 645.0 L 928.0 644.0 L 931.0 641.0 L 933.0 641.0 L 932.0 637.0 L 940.0 628.0 L 944.0 629.0 L 945.0 630.0 L 945.0 632.0 L 951.0 631.0 L 952.0 628.0 L 957.0 623.0 L 962.0 624.0 Z M 879.0 603.0 L 883.0 602.0 L 884.0 601.0 L 889.0 601.0 L 895.0 604.0 L 899.0 608.0 L 902.0 614.0 L 902.0 616.0 L 903.0 617.0 L 903.0 621.0 L 904.0 622.0 L 904.0 631.0 L 902.0 634.0 L 898.0 632.0 L 894.0 632.0 L 893.0 633.0 L 879.0 633.0 L 878.0 632.0 L 872.0 632.0 L 871.0 633.0 L 870.0 632.0 L 870.0 618.0 L 871.0 617.0 L 871.0 614.0 L 874.0 608.0 Z M 808.0 598.0 L 809.0 599.0 L 812.0 599.0 L 814.0 602.0 L 814.0 605.0 L 816.0 607.0 L 816.0 610.0 L 818.0 614.0 L 818.0 617.0 L 817.0 618.0 L 817.0 620.0 L 815.0 622.0 L 813.0 622.0 L 810.0 625.0 L 809.0 625.0 L 808.0 626.0 L 808.0 628.0 L 804.0 632.0 L 799.0 630.0 L 798.0 622.0 L 797.0 621.0 L 797.0 616.0 L 796.0 615.0 L 796.0 608.0 L 797.0 606.0 L 799.0 604.0 L 800.0 604.0 L 801.0 601.0 L 804.0 598.0 Z M 910.0 594.0 L 911.0 593.0 L 918.0 593.0 L 919.0 594.0 L 931.0 594.0 L 932.0 595.0 L 942.0 595.0 L 943.0 596.0 L 948.0 596.0 L 950.0 600.0 L 950.0 604.0 L 952.0 608.0 L 953.0 616.0 L 954.0 617.0 L 954.0 624.0 L 952.0 626.0 L 951.0 629.0 L 950.0 630.0 L 948.0 630.0 L 947.0 629.0 L 948.0 627.0 L 947.0 626.0 L 947.0 618.0 L 946.0 617.0 L 946.0 614.0 L 943.0 608.0 L 939.0 604.0 L 932.0 601.0 L 928.0 601.0 L 927.0 602.0 L 924.0 602.0 L 920.0 604.0 L 916.0 608.0 L 913.0 614.0 L 913.0 617.0 L 911.0 619.0 L 910.0 618.0 Z M 869.0 592.0 L 895.0 592.0 L 896.0 593.0 L 904.0 593.0 L 905.0 594.0 L 905.0 604.0 L 906.0 603.0 L 906.0 594.0 L 907.0 593.0 L 909.0 594.0 L 909.0 617.0 L 910.0 618.0 L 910.0 624.0 L 911.0 625.0 L 911.0 637.0 L 912.0 638.0 L 912.0 644.0 L 910.0 646.0 L 905.0 646.0 L 904.0 645.0 L 904.0 632.0 L 905.0 631.0 L 905.0 623.0 L 904.0 622.0 L 904.0 617.0 L 903.0 616.0 L 902.0 611.0 L 899.0 606.0 L 892.0 601.0 L 890.0 601.0 L 889.0 600.0 L 884.0 600.0 L 877.0 603.0 L 874.0 606.0 L 869.0 616.0 L 868.0 615.0 L 868.0 593.0 Z M 846.0 592.0 L 862.0 592.0 L 863.0 593.0 L 863.0 609.0 L 861.0 613.0 L 858.0 606.0 L 855.0 603.0 L 851.0 601.0 L 846.0 601.0 L 845.0 602.0 L 843.0 601.0 L 844.0 597.0 L 845.0 596.0 L 845.0 593.0 Z M 865.0 591.0 L 866.0 591.0 L 868.0 593.0 L 868.0 629.0 L 869.0 630.0 L 869.0 640.0 L 870.0 641.0 L 869.0 642.0 L 863.0 639.0 L 861.0 639.0 L 859.0 637.0 L 855.0 635.0 L 852.0 635.0 L 850.0 633.0 L 848.0 633.0 L 847.0 632.0 L 842.0 632.0 L 839.0 628.0 L 835.0 627.0 L 834.0 626.0 L 834.0 620.0 L 835.0 619.0 L 835.0 616.0 L 840.0 610.0 L 840.0 608.0 L 845.0 603.0 L 847.0 602.0 L 851.0 602.0 L 858.0 608.0 L 858.0 610.0 L 860.0 614.0 L 860.0 617.0 L 861.0 618.0 L 861.0 630.0 L 858.0 634.0 L 861.0 633.0 L 862.0 634.0 L 861.0 636.0 L 862.0 636.0 L 863.0 604.0 L 864.0 603.0 L 864.0 592.0 Z M 826.0 584.0 L 828.0 585.0 L 828.0 587.0 L 829.0 588.0 L 829.0 591.0 L 828.0 592.0 L 827.0 592.0 L 825.0 589.0 L 825.0 585.0 Z M 1121.0 567.0 L 1122.0 568.0 L 1122.0 631.0 L 1121.0 632.0 L 1121.0 649.0 L 1123.0 651.0 L 1123.0 658.0 L 1122.0 659.0 L 1120.0 659.0 L 1119.0 658.0 L 1119.0 648.0 L 1118.0 647.0 L 1118.0 645.0 L 1119.0 644.0 L 1119.0 592.0 L 1120.0 591.0 L 1120.0 568.0 Z M 839.0 558.0 L 842.0 561.0 L 842.0 565.0 L 845.0 568.0 L 845.0 572.0 L 847.0 575.0 L 847.0 586.0 L 843.0 591.0 L 841.0 590.0 L 841.0 591.0 L 843.0 591.0 L 844.0 592.0 L 844.0 596.0 L 843.0 597.0 L 842.0 601.0 L 840.0 603.0 L 840.0 607.0 L 839.0 608.0 L 839.0 610.0 L 835.0 612.0 L 835.0 615.0 L 834.0 616.0 L 834.0 619.0 L 833.0 620.0 L 833.0 626.0 L 831.0 628.0 L 830.0 628.0 L 829.0 627.0 L 829.0 620.0 L 832.0 616.0 L 833.0 611.0 L 827.0 623.0 L 826.0 621.0 L 824.0 620.0 L 819.0 620.0 L 818.0 619.0 L 818.0 611.0 L 817.0 610.0 L 817.0 606.0 L 815.0 604.0 L 814.0 600.0 L 810.0 598.0 L 808.0 596.0 L 808.0 590.0 L 813.0 578.0 L 816.0 575.0 L 818.0 574.0 L 824.0 575.0 L 826.0 579.0 L 826.0 582.0 L 825.0 583.0 L 824.0 589.0 L 825.0 590.0 L 826.0 594.0 L 827.0 594.0 L 831.0 599.0 L 831.0 602.0 L 832.0 603.0 L 831.0 607.0 L 832.0 606.0 L 832.0 598.0 L 831.0 597.0 L 831.0 595.0 L 830.0 595.0 L 828.0 593.0 L 830.0 589.0 L 829.0 588.0 L 829.0 585.0 L 827.0 582.0 L 827.0 576.0 L 828.0 575.0 L 828.0 573.0 L 830.0 571.0 L 830.0 569.0 L 833.0 566.0 L 834.0 566.0 L 834.0 563.0 L 835.0 561.0 Z M 996.0 544.0 L 997.0 545.0 L 997.0 556.0 L 996.0 557.0 L 996.0 591.0 L 995.0 592.0 L 995.0 628.0 L 994.0 629.0 L 994.0 648.0 L 993.0 649.0 L 993.0 658.0 L 992.0 659.0 L 985.0 659.0 L 984.0 658.0 L 984.0 651.0 L 986.0 649.0 L 986.0 634.0 L 987.0 633.0 L 988.0 549.0 L 991.0 545.0 L 994.0 545.0 Z M 1110.0 544.0 L 1110.0 615.0 L 1109.0 616.0 L 1109.0 648.0 L 1108.0 649.0 L 1045.0 649.0 L 1044.0 648.0 L 1044.0 626.0 L 1000.0 627.0 L 1000.0 648.0 L 999.0 649.0 L 996.0 649.0 L 995.0 648.0 L 995.0 624.0 L 996.0 623.0 L 996.0 589.0 L 997.0 588.0 L 997.0 552.0 L 998.0 551.0 L 998.0 547.0 L 999.0 546.0 L 1007.0 546.0 L 1008.0 545.0 L 1034.0 545.0 L 1035.0 544.0 L 1108.0 544.0 L 1109.0 543.0 Z M 1113.0 542.0 L 1119.0 542.0 L 1120.0 543.0 L 1120.0 553.0 L 1119.0 554.0 L 1119.0 602.0 L 1118.0 603.0 L 1118.0 639.0 L 1117.0 640.0 L 1117.0 647.0 L 1118.0 648.0 L 1118.0 658.0 L 1117.0 659.0 L 1110.0 659.0 L 1109.0 658.0 L 1109.0 650.0 L 1110.0 649.0 L 1110.0 608.0 L 1111.0 607.0 L 1111.0 544.0 Z M 1041.0 543.0 L 1041.0 541.0 L 1043.0 539.0 L 1049.0 538.0 L 1054.0 534.0 L 1056.0 535.0 L 1056.0 540.0 L 1057.0 540.0 L 1057.0 535.0 L 1059.0 534.0 L 1064.0 538.0 L 1068.0 538.0 L 1072.0 541.0 L 1071.0 543.0 L 1043.0 543.0 L 1042.0 544.0 Z M 740.0 658.0 L 739.0 657.0 L 739.0 648.0 L 738.0 647.0 L 738.0 642.0 L 737.0 641.0 L 737.0 630.0 L 738.0 629.0 L 738.0 626.0 L 737.0 625.0 L 736.0 614.0 L 735.0 613.0 L 735.0 609.0 L 734.0 608.0 L 733.0 597.0 L 731.0 597.0 L 730.0 598.0 L 731.0 601.0 L 729.0 605.0 L 728.0 613.0 L 726.0 616.0 L 725.0 615.0 L 725.0 609.0 L 724.0 609.0 L 722.0 607.0 L 722.0 597.0 L 721.0 596.0 L 721.0 592.0 L 720.0 591.0 L 720.0 573.0 L 718.0 569.0 L 717.0 546.0 L 715.0 542.0 L 715.0 532.0 L 714.0 530.0 L 712.0 530.0 L 710.0 532.0 L 710.0 542.0 L 708.0 544.0 L 708.0 556.0 L 707.0 557.0 L 707.0 564.0 L 706.0 565.0 L 706.0 574.0 L 705.0 575.0 L 705.0 591.0 L 704.0 592.0 L 705.0 594.0 L 705.0 602.0 L 706.0 603.0 L 706.0 605.0 L 705.0 606.0 L 705.0 610.0 L 704.0 611.0 L 703.0 610.0 L 702.0 602.0 L 700.0 599.0 L 700.0 596.0 L 699.0 595.0 L 699.0 587.0 L 696.0 587.0 L 696.0 591.0 L 697.0 593.0 L 696.0 594.0 L 694.0 602.0 L 693.0 603.0 L 692.0 602.0 L 692.0 595.0 L 691.0 594.0 L 691.0 590.0 L 690.0 589.0 L 690.0 580.0 L 688.0 576.0 L 688.0 570.0 L 689.0 569.0 L 688.0 568.0 L 688.0 566.0 L 685.0 566.0 L 684.0 568.0 L 685.0 572.0 L 683.0 575.0 L 683.0 578.0 L 682.0 579.0 L 679.0 579.0 L 678.0 578.0 L 678.0 571.0 L 676.0 568.0 L 676.0 548.0 L 675.0 547.0 L 675.0 531.0 L 674.0 530.0 L 674.0 526.0 L 673.0 525.0 L 673.0 513.0 L 672.0 512.0 L 671.0 501.0 L 669.0 499.0 L 669.0 495.0 L 670.0 493.0 L 672.0 492.0 L 672.0 491.0 L 671.0 491.0 L 669.0 488.0 L 668.0 490.0 L 666.0 491.0 L 666.0 492.0 L 668.0 494.0 L 668.0 500.0 L 666.0 503.0 L 666.0 512.0 L 664.0 516.0 L 664.0 529.0 L 663.0 530.0 L 663.0 540.0 L 662.0 541.0 L 662.0 546.0 L 661.0 547.0 L 661.0 562.0 L 660.0 563.0 L 659.0 577.0 L 656.0 580.0 L 654.0 585.0 L 652.0 586.0 L 651.0 585.0 L 650.0 577.0 L 649.0 576.0 L 650.0 568.0 L 649.0 567.0 L 647.0 567.0 L 646.0 568.0 L 646.0 570.0 L 645.0 571.0 L 647.0 573.0 L 647.0 575.0 L 646.0 576.0 L 646.0 580.0 L 645.0 581.0 L 644.0 588.0 L 640.0 591.0 L 639.0 593.0 L 639.0 599.0 L 637.0 603.0 L 635.0 605.0 L 634.0 604.0 L 634.0 602.0 L 635.0 601.0 L 635.0 597.0 L 634.0 596.0 L 634.0 578.0 L 633.0 577.0 L 633.0 570.0 L 632.0 569.0 L 631.0 546.0 L 630.0 545.0 L 630.0 542.0 L 629.0 541.0 L 629.0 535.0 L 630.0 533.0 L 628.0 530.0 L 625.0 530.0 L 624.0 532.0 L 624.0 542.0 L 623.0 543.0 L 623.0 546.0 L 622.0 547.0 L 622.0 557.0 L 621.0 558.0 L 621.0 565.0 L 619.0 568.0 L 619.0 570.0 L 620.0 571.0 L 620.0 576.0 L 619.0 577.0 L 619.0 591.0 L 618.0 592.0 L 618.0 608.0 L 617.0 609.0 L 615.0 609.0 L 614.0 611.0 L 612.0 610.0 L 612.0 608.0 L 610.0 604.0 L 610.0 601.0 L 609.0 600.0 L 610.0 599.0 L 610.0 597.0 L 608.0 596.0 L 607.0 597.0 L 607.0 599.0 L 608.0 600.0 L 606.0 604.0 L 605.0 612.0 L 603.0 614.0 L 603.0 623.0 L 602.0 624.0 L 602.0 640.0 L 601.0 641.0 L 600.0 658.0 L 599.0 659.0 L 594.0 659.0 L 593.0 658.0 L 593.0 649.0 L 592.0 649.0 L 590.0 647.0 L 590.0 641.0 L 587.0 641.0 L 586.0 640.0 L 578.0 640.0 L 577.0 641.0 L 577.0 647.0 L 576.0 648.0 L 574.0 647.0 L 574.0 645.0 L 573.0 644.0 L 571.0 644.0 L 570.0 646.0 L 568.0 648.0 L 567.0 648.0 L 566.0 647.0 L 566.0 640.0 L 564.0 639.0 L 563.0 637.0 L 564.0 636.0 L 563.0 634.0 L 562.0 635.0 L 560.0 633.0 L 561.0 632.0 L 560.0 630.0 L 561.0 628.0 L 555.0 625.0 L 552.0 625.0 L 551.0 626.0 L 546.0 627.0 L 546.0 631.0 L 544.0 633.0 L 538.0 633.0 L 537.0 634.0 L 537.0 641.0 L 535.0 643.0 L 531.0 643.0 L 530.0 642.0 L 530.0 640.0 L 528.0 640.0 L 527.0 641.0 L 524.0 638.0 L 524.0 621.0 L 523.0 620.0 L 523.0 579.0 L 527.0 575.0 L 529.0 574.0 L 533.0 574.0 L 533.0 571.0 L 532.0 570.0 L 532.0 567.0 L 533.0 566.0 L 533.0 560.0 L 529.0 558.0 L 527.0 556.0 L 527.0 555.0 L 525.0 554.0 L 524.0 528.0 L 523.0 527.0 L 521.0 527.0 L 519.0 525.0 L 519.0 510.0 L 520.0 509.0 L 520.0 490.0 L 519.0 488.0 L 518.0 490.0 L 519.0 491.0 L 519.0 503.0 L 518.0 504.0 L 518.0 526.0 L 517.0 527.0 L 515.0 527.0 L 513.0 529.0 L 512.0 554.0 L 510.0 555.0 L 510.0 557.0 L 509.0 558.0 L 506.0 558.0 L 505.0 559.0 L 505.0 567.0 L 506.0 568.0 L 505.0 569.0 L 505.0 573.0 L 506.0 574.0 L 511.0 575.0 L 514.0 580.0 L 514.0 595.0 L 513.0 596.0 L 513.0 619.0 L 512.0 620.0 L 512.0 639.0 L 511.0 640.0 L 512.0 642.0 L 510.0 643.0 L 507.0 639.0 L 504.0 639.0 L 502.0 637.0 L 502.0 636.0 L 497.0 636.0 L 495.0 637.0 L 493.0 640.0 L 490.0 637.0 L 486.0 636.0 L 485.0 635.0 L 485.0 631.0 L 484.0 630.0 L 483.0 631.0 L 481.0 629.0 L 481.0 619.0 L 480.0 618.0 L 479.0 619.0 L 478.0 618.0 L 478.0 608.0 L 477.0 607.0 L 477.0 600.0 L 476.0 600.0 L 474.0 597.0 L 468.0 597.0 L 467.0 599.0 L 465.0 600.0 L 465.0 623.0 L 463.0 624.0 L 463.0 640.0 L 461.0 642.0 L 460.0 641.0 L 459.0 642.0 L 456.0 642.0 L 455.0 649.0 L 456.0 649.0 L 456.0 645.0 L 458.0 642.0 L 469.0 642.0 L 471.0 644.0 L 471.0 649.0 L 475.0 649.0 L 475.0 642.0 L 474.0 642.0 L 474.0 647.0 L 473.0 648.0 L 472.0 647.0 L 472.0 643.0 L 471.0 641.0 L 465.0 641.0 L 464.0 640.0 L 464.0 626.0 L 465.0 625.0 L 467.0 625.0 L 466.0 623.0 L 466.0 601.0 L 468.0 600.0 L 469.0 598.0 L 473.0 598.0 L 477.0 603.0 L 477.0 619.0 L 479.0 619.0 L 480.0 620.0 L 480.0 623.0 L 479.0 624.0 L 473.0 624.0 L 473.0 625.0 L 479.0 625.0 L 480.0 626.0 L 480.0 641.0 L 481.0 641.0 L 481.0 632.0 L 483.0 631.0 L 484.0 632.0 L 484.0 639.0 L 486.0 637.0 L 488.0 637.0 L 491.0 640.0 L 491.0 641.0 L 495.0 641.0 L 495.0 640.0 L 498.0 637.0 L 500.0 637.0 L 501.0 639.0 L 504.0 639.0 L 506.0 640.0 L 508.0 644.0 L 511.0 644.0 L 512.0 645.0 L 512.0 640.0 L 513.0 639.0 L 513.0 618.0 L 514.0 617.0 L 514.0 595.0 L 515.0 594.0 L 515.0 579.0 L 512.0 574.0 L 513.0 573.0 L 522.0 573.0 L 526.0 575.0 L 522.0 577.0 L 522.0 623.0 L 523.0 624.0 L 523.0 647.0 L 521.0 648.0 L 522.0 649.0 L 524.0 648.0 L 533.0 648.0 L 533.0 647.0 L 525.0 647.0 L 524.0 646.0 L 524.0 642.0 L 525.0 641.0 L 528.0 641.0 L 530.0 644.0 L 536.0 644.0 L 538.0 642.0 L 538.0 635.0 L 539.0 634.0 L 550.0 634.0 L 546.0 632.0 L 546.0 629.0 L 548.0 627.0 L 555.0 626.0 L 556.0 627.0 L 558.0 627.0 L 560.0 629.0 L 560.0 636.0 L 561.0 635.0 L 563.0 637.0 L 563.0 639.0 L 562.0 640.0 L 563.0 640.0 L 565.0 642.0 L 565.0 649.0 L 567.0 648.0 L 568.0 649.0 L 577.0 649.0 L 578.0 648.0 L 578.0 642.0 L 579.0 641.0 L 588.0 641.0 L 589.0 642.0 L 589.0 649.0 L 592.0 651.0 L 592.0 658.0 L 591.0 659.0 L 347.0 659.0 L 346.0 658.0 L 346.0 640.0 L 347.0 639.0 L 349.0 641.0 L 349.0 639.0 L 350.0 638.0 L 351.0 639.0 L 355.0 639.0 L 356.0 640.0 L 357.0 645.0 L 367.0 645.0 L 368.0 644.0 L 368.0 625.0 L 369.0 624.0 L 384.0 624.0 L 385.0 625.0 L 385.0 641.0 L 383.0 642.0 L 383.0 643.0 L 381.0 645.0 L 382.0 646.0 L 382.0 653.0 L 380.0 654.0 L 379.0 653.0 L 379.0 650.0 L 378.0 649.0 L 378.0 654.0 L 380.0 654.0 L 381.0 655.0 L 383.0 654.0 L 383.0 644.0 L 384.0 643.0 L 390.0 642.0 L 392.0 644.0 L 395.0 644.0 L 395.0 632.0 L 396.0 631.0 L 398.0 631.0 L 398.0 627.0 L 400.0 625.0 L 404.0 624.0 L 404.0 622.0 L 405.0 621.0 L 411.0 621.0 L 411.0 620.0 L 405.0 620.0 L 404.0 619.0 L 404.0 584.0 L 405.0 583.0 L 409.0 583.0 L 410.0 584.0 L 415.0 584.0 L 417.0 582.0 L 421.0 582.0 L 422.0 583.0 L 422.0 599.0 L 423.0 600.0 L 423.0 602.0 L 422.0 603.0 L 422.0 619.0 L 421.0 620.0 L 419.0 620.0 L 420.0 621.0 L 422.0 620.0 L 424.0 621.0 L 425.0 620.0 L 423.0 618.0 L 423.0 580.0 L 417.0 581.0 L 416.0 582.0 L 415.0 581.0 L 403.0 582.0 L 403.0 619.0 L 402.0 620.0 L 400.0 620.0 L 400.0 623.0 L 397.0 625.0 L 397.0 629.0 L 396.0 630.0 L 394.0 630.0 L 394.0 642.0 L 393.0 643.0 L 391.0 641.0 L 387.0 641.0 L 386.0 640.0 L 386.0 623.0 L 383.0 623.0 L 382.0 621.0 L 379.0 621.0 L 378.0 620.0 L 377.0 621.0 L 370.0 621.0 L 371.0 622.0 L 370.0 623.0 L 367.0 623.0 L 367.0 643.0 L 366.0 644.0 L 360.0 644.0 L 357.0 641.0 L 357.0 639.0 L 356.0 638.0 L 353.0 638.0 L 352.0 637.0 L 348.0 637.0 L 347.0 638.0 L 345.0 638.0 L 345.0 658.0 L 344.0 659.0 L 310.0 659.0 L 309.0 658.0 L 310.0 657.0 L 309.0 656.0 L 309.0 579.0 L 310.0 578.0 L 312.0 579.0 L 312.0 580.0 L 316.0 584.0 L 316.0 585.0 L 320.0 589.0 L 320.0 590.0 L 328.0 598.0 L 328.0 599.0 L 334.0 606.0 L 336.0 604.0 L 286.0 546.0 L 285.0 546.0 L 281.0 550.0 L 281.0 551.0 L 271.0 562.0 L 266.0 562.0 L 265.0 561.0 L 265.0 560.0 L 271.0 554.0 L 271.0 553.0 L 283.0 541.0 L 283.0 540.0 L 291.0 532.0 L 291.0 531.0 L 299.0 522.0 L 297.0 520.0 L 295.0 520.0 L 295.0 521.0 L 289.0 527.0 L 289.0 528.0 L 263.0 555.0 L 263.0 558.0 L 262.0 560.0 L 260.0 561.0 L 258.0 557.0 L 260.0 555.0 L 260.0 552.0 L 259.0 551.0 L 259.0 549.0 L 257.0 545.0 L 257.0 542.0 L 256.0 541.0 L 256.0 539.0 L 255.0 538.0 L 255.0 536.0 L 254.0 535.0 L 254.0 533.0 L 253.0 532.0 L 253.0 530.0 L 252.0 529.0 L 252.0 527.0 L 249.0 520.0 L 249.0 517.0 L 247.0 513.0 L 242.0 517.0 L 243.0 518.0 L 243.0 521.0 L 244.0 522.0 L 245.0 528.0 L 247.0 532.0 L 247.0 535.0 L 250.0 542.0 L 250.0 545.0 L 251.0 546.0 L 251.0 548.0 L 252.0 549.0 L 252.0 551.0 L 255.0 558.0 L 255.0 560.0 L 254.0 561.0 L 252.0 561.0 L 252.0 563.0 L 251.0 564.0 L 251.0 565.0 L 253.0 565.0 L 254.0 566.0 L 233.0 590.0 L 233.0 591.0 L 229.0 595.0 L 229.0 597.0 L 231.0 599.0 L 232.0 599.0 L 244.0 586.0 L 244.0 585.0 L 256.0 573.0 L 256.0 572.0 L 258.0 570.0 L 259.0 571.0 L 259.0 573.0 L 258.0 574.0 L 258.0 577.0 L 260.0 580.0 L 259.0 582.0 L 260.0 584.0 L 260.0 631.0 L 259.0 632.0 L 259.0 658.0 L 258.0 659.0 L 217.0 659.0 L 216.0 658.0 L 217.0 657.0 L 216.0 656.0 L 216.0 595.0 L 217.0 594.0 L 225.0 602.0 L 226.0 602.0 L 226.0 600.0 L 224.0 599.0 L 224.0 598.0 L 217.0 591.0 L 217.0 590.0 L 214.0 588.0 L 214.0 587.0 L 192.0 564.0 L 177.0 580.0 L 175.0 580.0 L 174.0 579.0 L 186.0 565.0 L 186.0 564.0 L 191.0 559.0 L 191.0 558.0 L 197.0 552.0 L 197.0 551.0 L 200.0 548.0 L 200.0 546.0 L 199.0 545.0 L 197.0 545.0 L 195.0 547.0 L 195.0 548.0 L 189.0 554.0 L 189.0 555.0 L 171.0 574.0 L 169.0 578.0 L 166.0 581.0 L 163.0 577.0 L 164.0 575.0 L 164.0 572.0 L 146.0 536.0 L 146.0 534.0 L 144.0 533.0 L 140.0 536.0 L 140.0 538.0 L 154.0 566.0 L 154.0 568.0 L 157.0 574.0 L 159.0 576.0 L 159.0 578.0 L 160.0 579.0 L 159.0 580.0 L 157.0 580.0 L 157.0 585.0 L 160.0 585.0 L 161.0 587.0 L 153.0 597.0 L 153.0 598.0 L 149.0 602.0 L 146.0 607.0 L 141.0 612.0 L 141.0 613.0 L 139.0 615.0 L 139.0 617.0 L 141.0 619.0 L 142.0 619.0 L 151.0 609.0 L 151.0 608.0 L 160.0 598.0 L 160.0 597.0 L 164.0 593.0 L 165.0 594.0 L 165.0 596.0 L 166.0 597.0 L 164.0 599.0 L 166.0 601.0 L 166.0 658.0 L 165.0 659.0 L 114.0 659.0 L 114.0 660.0 L 599.0 660.0 L 600.0 661.0 L 601.0 660.0 L 601.0 645.0 L 602.0 644.0 L 602.0 634.0 L 603.0 633.0 L 603.0 616.0 L 605.0 615.0 L 606.0 609.0 L 607.0 608.0 L 607.0 603.0 L 608.0 602.0 L 610.0 604.0 L 610.0 607.0 L 611.0 608.0 L 611.0 612.0 L 612.0 614.0 L 614.0 614.0 L 615.0 615.0 L 615.0 631.0 L 616.0 632.0 L 616.0 645.0 L 617.0 646.0 L 616.0 657.0 L 618.0 657.0 L 618.0 624.0 L 619.0 623.0 L 619.0 616.0 L 620.0 615.0 L 621.0 616.0 L 621.0 618.0 L 621.0 600.0 L 622.0 599.0 L 623.0 600.0 L 623.0 611.0 L 624.0 612.0 L 624.0 600.0 L 622.0 599.0 L 622.0 593.0 L 620.0 593.0 L 619.0 592.0 L 619.0 584.0 L 620.0 583.0 L 619.0 581.0 L 620.0 580.0 L 620.0 578.0 L 621.0 577.0 L 621.0 573.0 L 622.0 572.0 L 622.0 560.0 L 623.0 559.0 L 624.0 560.0 L 624.0 567.0 L 625.0 566.0 L 625.0 559.0 L 624.0 558.0 L 626.0 556.0 L 628.0 557.0 L 628.0 566.0 L 629.0 566.0 L 629.0 562.0 L 630.0 561.0 L 631.0 562.0 L 632.0 574.0 L 631.0 575.0 L 629.0 574.0 L 629.0 572.0 L 627.0 568.0 L 624.0 570.0 L 624.0 589.0 L 624.0 572.0 L 626.0 570.0 L 628.0 571.0 L 628.0 577.0 L 630.0 578.0 L 630.0 581.0 L 629.0 582.0 L 629.0 588.0 L 630.0 588.0 L 629.0 586.0 L 630.0 585.0 L 630.0 577.0 L 631.0 576.0 L 633.0 580.0 L 633.0 593.0 L 632.0 594.0 L 630.0 594.0 L 630.0 607.0 L 629.0 608.0 L 628.0 607.0 L 628.0 601.0 L 627.0 600.0 L 627.0 604.0 L 628.0 605.0 L 628.0 608.0 L 630.0 611.0 L 630.0 613.0 L 631.0 612.0 L 631.0 598.0 L 632.0 597.0 L 634.0 598.0 L 633.0 619.0 L 631.0 620.0 L 631.0 628.0 L 633.0 630.0 L 633.0 635.0 L 631.0 637.0 L 633.0 641.0 L 633.0 657.0 L 634.0 657.0 L 634.0 614.0 L 635.0 613.0 L 635.0 607.0 L 637.0 606.0 L 639.0 602.0 L 640.0 603.0 L 640.0 605.0 L 642.0 607.0 L 642.0 613.0 L 643.0 614.0 L 643.0 656.0 L 644.0 656.0 L 644.0 643.0 L 645.0 642.0 L 646.0 643.0 L 646.0 651.0 L 646.0 643.0 L 647.0 642.0 L 649.0 643.0 L 649.0 649.0 L 649.0 640.0 L 647.0 639.0 L 647.0 637.0 L 648.0 636.0 L 649.0 637.0 L 649.0 614.0 L 650.0 613.0 L 649.0 596.0 L 649.0 615.0 L 648.0 616.0 L 647.0 615.0 L 647.0 594.0 L 649.0 592.0 L 648.0 590.0 L 647.0 592.0 L 647.0 598.0 L 646.0 599.0 L 647.0 602.0 L 646.0 603.0 L 646.0 616.0 L 645.0 617.0 L 644.0 616.0 L 644.0 601.0 L 642.0 599.0 L 642.0 597.0 L 644.0 593.0 L 645.0 585.0 L 646.0 584.0 L 646.0 580.0 L 648.0 576.0 L 649.0 577.0 L 649.0 580.0 L 650.0 581.0 L 650.0 584.0 L 651.0 585.0 L 651.0 589.0 L 653.0 590.0 L 653.0 631.0 L 652.0 632.0 L 652.0 657.0 L 653.0 658.0 L 653.0 593.0 L 655.0 590.0 L 655.0 583.0 L 658.0 580.0 L 659.0 581.0 L 659.0 596.0 L 659.0 585.0 L 660.0 584.0 L 659.0 583.0 L 660.0 582.0 L 659.0 579.0 L 660.0 578.0 L 660.0 573.0 L 661.0 572.0 L 663.0 572.0 L 664.0 573.0 L 664.0 584.0 L 664.0 574.0 L 665.0 573.0 L 665.0 566.0 L 667.0 563.0 L 670.0 563.0 L 671.0 564.0 L 671.0 577.0 L 672.0 576.0 L 671.0 575.0 L 671.0 573.0 L 672.0 572.0 L 674.0 572.0 L 675.0 573.0 L 675.0 587.0 L 673.0 588.0 L 673.0 598.0 L 673.0 591.0 L 674.0 590.0 L 675.0 591.0 L 675.0 600.0 L 676.0 600.0 L 676.0 592.0 L 678.0 591.0 L 678.0 583.0 L 679.0 582.0 L 681.0 583.0 L 681.0 590.0 L 680.0 591.0 L 680.0 595.0 L 681.0 596.0 L 681.0 587.0 L 683.0 585.0 L 683.0 579.0 L 684.0 578.0 L 684.0 575.0 L 686.0 573.0 L 688.0 576.0 L 688.0 579.0 L 686.0 581.0 L 686.0 584.0 L 687.0 584.0 L 687.0 582.0 L 688.0 581.0 L 689.0 582.0 L 689.0 587.0 L 690.0 588.0 L 690.0 591.0 L 691.0 592.0 L 691.0 632.0 L 690.0 633.0 L 691.0 634.0 L 691.0 641.0 L 690.0 642.0 L 690.0 650.0 L 691.0 651.0 L 691.0 654.0 L 691.0 642.0 L 692.0 641.0 L 692.0 636.0 L 694.0 633.0 L 693.0 632.0 L 694.0 630.0 L 694.0 624.0 L 693.0 623.0 L 693.0 614.0 L 694.0 613.0 L 703.0 613.0 L 704.0 614.0 L 704.0 657.0 L 705.0 656.0 L 705.0 652.0 L 706.0 651.0 L 706.0 640.0 L 707.0 639.0 L 709.0 639.0 L 711.0 641.0 L 712.0 655.0 L 713.0 655.0 L 713.0 646.0 L 712.0 645.0 L 712.0 635.0 L 713.0 634.0 L 713.0 632.0 L 711.0 629.0 L 712.0 600.0 L 710.0 596.0 L 710.0 592.0 L 712.0 588.0 L 712.0 576.0 L 711.0 575.0 L 711.0 570.0 L 713.0 569.0 L 715.0 571.0 L 715.0 574.0 L 716.0 573.0 L 717.0 574.0 L 717.0 576.0 L 719.0 577.0 L 719.0 578.0 L 717.0 580.0 L 717.0 588.0 L 717.0 583.0 L 718.0 582.0 L 719.0 583.0 L 719.0 620.0 L 721.0 622.0 L 721.0 657.0 L 722.0 657.0 L 722.0 612.0 L 723.0 611.0 L 725.0 615.0 L 725.0 622.0 L 726.0 623.0 L 726.0 625.0 L 725.0 626.0 L 725.0 631.0 L 724.0 632.0 L 724.0 645.0 L 725.0 645.0 L 725.0 632.0 L 726.0 631.0 L 727.0 632.0 L 727.0 656.0 L 728.0 656.0 L 728.0 632.0 L 727.0 631.0 L 728.0 630.0 L 727.0 629.0 L 727.0 619.0 L 728.0 618.0 L 728.0 613.0 L 730.0 609.0 L 730.0 605.0 L 732.0 603.0 L 733.0 604.0 L 733.0 607.0 L 734.0 608.0 L 734.0 613.0 L 735.0 614.0 L 735.0 616.0 L 734.0 617.0 L 732.0 617.0 L 732.0 618.0 L 733.0 619.0 L 734.0 618.0 L 736.0 621.0 L 736.0 642.0 L 734.0 645.0 L 732.0 645.0 L 731.0 647.0 L 731.0 653.0 L 732.0 652.0 L 732.0 647.0 L 733.0 646.0 L 734.0 647.0 L 734.0 650.0 L 735.0 651.0 L 734.0 652.0 L 735.0 653.0 L 735.0 645.0 L 736.0 644.0 L 738.0 646.0 L 738.0 660.0 L 740.0 660.0 Z M 570.0 647.0 L 571.0 646.0 L 573.0 647.0 L 572.0 648.0 Z M 197.0 642.0 L 199.0 642.0 L 201.0 644.0 L 201.0 658.0 L 200.0 659.0 L 196.0 659.0 L 195.0 658.0 L 195.0 644.0 Z M 290.0 641.0 L 293.0 641.0 L 295.0 643.0 L 294.0 644.0 L 295.0 645.0 L 295.0 658.0 L 294.0 659.0 L 289.0 659.0 L 288.0 658.0 L 288.0 648.0 L 289.0 647.0 L 289.0 642.0 Z M 645.0 635.0 L 646.0 636.0 L 646.0 640.0 L 645.0 641.0 L 644.0 640.0 L 644.0 636.0 Z M 709.0 626.0 L 711.0 628.0 L 711.0 637.0 L 710.0 638.0 L 708.0 636.0 L 708.0 627.0 Z M 400.0 622.0 L 402.0 621.0 L 403.0 623.0 L 402.0 624.0 Z M 372.0 622.0 L 373.0 621.0 L 380.0 621.0 L 381.0 622.0 L 380.0 623.0 L 373.0 623.0 Z M 648.0 618.0 L 649.0 619.0 L 649.0 633.0 L 648.0 634.0 L 647.0 633.0 L 647.0 619.0 Z M 645.0 618.0 L 646.0 619.0 L 646.0 633.0 L 645.0 634.0 L 644.0 633.0 L 644.0 619.0 Z M 692.0 617.0 L 693.0 618.0 L 693.0 631.0 L 692.0 632.0 L 691.0 631.0 L 691.0 618.0 Z M 176.0 617.0 L 177.0 617.0 L 179.0 619.0 L 179.0 621.0 L 180.0 622.0 L 180.0 624.0 L 177.0 626.0 L 175.0 625.0 L 175.0 622.0 L 174.0 621.0 L 174.0 619.0 Z M 719.0 615.0 L 720.0 614.0 L 721.0 616.0 L 720.0 617.0 Z M 709.0 614.0 L 710.0 615.0 L 710.0 619.0 L 711.0 620.0 L 710.0 621.0 L 707.0 620.0 L 707.0 630.0 L 708.0 631.0 L 708.0 636.0 L 706.0 639.0 L 705.0 638.0 L 705.0 615.0 L 706.0 614.0 Z M 616.0 611.0 L 618.0 612.0 L 618.0 626.0 L 617.0 627.0 L 615.0 625.0 L 615.0 612.0 Z M 146.0 609.0 L 147.0 611.0 L 145.0 613.0 L 145.0 614.0 L 142.0 617.0 L 141.0 617.0 L 140.0 616.0 L 142.0 614.0 L 144.0 610.0 Z M 642.0 608.0 L 643.0 607.0 L 644.0 609.0 L 643.0 610.0 Z M 641.0 600.0 L 643.0 601.0 L 643.0 604.0 L 642.0 605.0 L 640.0 603.0 L 640.0 601.0 Z M 154.0 600.0 L 155.0 602.0 L 151.0 606.0 L 151.0 607.0 L 149.0 609.0 L 148.0 609.0 L 147.0 608.0 L 148.0 605.0 L 153.0 600.0 Z M 710.0 599.0 L 711.0 600.0 L 711.0 612.0 L 710.0 613.0 L 709.0 612.0 L 709.0 600.0 Z M 156.0 599.0 L 157.0 598.0 L 158.0 599.0 L 157.0 600.0 Z M 720.0 597.0 L 721.0 598.0 L 721.0 607.0 L 722.0 608.0 L 721.0 609.0 L 722.0 610.0 L 721.0 611.0 L 722.0 613.0 L 721.0 614.0 L 719.0 613.0 L 719.0 598.0 Z M 271.0 597.0 L 273.0 599.0 L 274.0 604.0 L 271.0 607.0 L 270.0 607.0 L 269.0 606.0 L 268.0 600.0 Z M 167.0 596.0 L 169.0 598.0 L 169.0 601.0 L 168.0 602.0 L 166.0 599.0 L 166.0 597.0 Z M 697.0 595.0 L 699.0 596.0 L 699.0 599.0 L 701.0 603.0 L 701.0 606.0 L 703.0 609.0 L 703.0 610.0 L 701.0 612.0 L 699.0 612.0 L 698.0 611.0 L 698.0 608.0 L 697.0 608.0 L 697.0 611.0 L 696.0 612.0 L 695.0 612.0 L 693.0 610.0 L 693.0 607.0 L 695.0 605.0 L 695.0 600.0 L 696.0 599.0 L 696.0 596.0 Z M 159.0 595.0 L 160.0 597.0 L 158.0 599.0 L 157.0 597.0 Z M 155.0 596.0 L 156.0 595.0 L 157.0 596.0 L 156.0 597.0 Z M 159.0 595.0 L 160.0 594.0 L 161.0 595.0 L 160.0 596.0 Z M 156.0 595.0 L 157.0 594.0 L 158.0 595.0 L 157.0 596.0 Z M 620.0 593.0 L 621.0 594.0 L 621.0 611.0 L 619.0 612.0 L 618.0 611.0 L 618.0 595.0 Z M 169.0 593.0 L 170.0 594.0 L 172.0 602.0 L 174.0 605.0 L 174.0 607.0 L 177.0 615.0 L 175.0 617.0 L 174.0 617.0 L 172.0 615.0 L 172.0 613.0 L 170.0 610.0 L 170.0 607.0 L 171.0 605.0 L 169.0 605.0 L 168.0 604.0 L 170.0 602.0 L 169.0 598.0 L 168.0 597.0 L 168.0 594.0 Z M 234.0 592.0 L 235.0 594.0 L 231.0 598.0 L 230.0 596.0 L 231.0 594.0 L 233.0 592.0 Z M 642.0 591.0 L 643.0 592.0 L 643.0 594.0 L 641.0 596.0 L 640.0 595.0 L 640.0 593.0 Z M 675.0 591.0 L 676.0 590.0 L 677.0 591.0 L 676.0 592.0 Z M 164.0 590.0 L 165.0 591.0 L 161.0 595.0 L 160.0 593.0 L 163.0 590.0 Z M 173.0 590.0 L 183.0 590.0 L 184.0 589.0 L 203.0 589.0 L 204.0 590.0 L 213.0 590.0 L 215.0 592.0 L 215.0 652.0 L 216.0 653.0 L 216.0 658.0 L 215.0 659.0 L 203.0 659.0 L 202.0 658.0 L 202.0 643.0 L 201.0 642.0 L 195.0 642.0 L 195.0 647.0 L 194.0 648.0 L 194.0 658.0 L 193.0 659.0 L 167.0 659.0 L 166.0 658.0 L 166.0 640.0 L 167.0 639.0 L 167.0 607.0 L 168.0 606.0 L 169.0 607.0 L 169.0 609.0 L 170.0 610.0 L 170.0 612.0 L 171.0 613.0 L 171.0 615.0 L 172.0 616.0 L 172.0 618.0 L 173.0 619.0 L 173.0 621.0 L 175.0 624.0 L 176.0 628.0 L 177.0 628.0 L 181.0 624.0 L 180.0 619.0 L 178.0 616.0 L 177.0 611.0 L 175.0 608.0 L 175.0 606.0 L 173.0 603.0 L 173.0 601.0 L 170.0 594.0 L 170.0 592.0 Z M 161.0 589.0 L 162.0 591.0 L 158.0 595.0 L 157.0 593.0 Z M 161.0 589.0 L 162.0 588.0 L 163.0 589.0 L 162.0 590.0 Z M 167.0 587.0 L 169.0 590.0 L 167.0 593.0 L 165.0 589.0 Z M 162.0 588.0 L 163.0 587.0 L 164.0 588.0 L 163.0 589.0 Z M 163.0 587.0 L 164.0 586.0 L 165.0 587.0 L 164.0 588.0 Z M 170.0 585.0 L 171.0 586.0 L 171.0 588.0 L 170.0 589.0 L 169.0 588.0 L 169.0 586.0 Z M 164.0 586.0 L 165.0 585.0 L 166.0 586.0 L 165.0 587.0 Z M 166.0 583.0 L 167.0 582.0 L 169.0 584.0 L 167.0 585.0 Z M 411.0 582.0 L 412.0 581.0 L 413.0 582.0 L 412.0 583.0 Z M 171.0 584.0 L 173.0 581.0 L 175.0 582.0 L 175.0 583.0 L 173.0 585.0 Z M 158.0 582.0 L 159.0 581.0 L 161.0 583.0 L 159.0 584.0 Z M 162.0 581.0 L 163.0 580.0 L 164.0 582.0 L 163.0 583.0 Z M 262.0 579.0 L 264.0 582.0 L 263.0 584.0 L 261.0 583.0 L 261.0 580.0 Z M 168.0 580.0 L 170.0 579.0 L 171.0 581.0 L 169.0 582.0 Z M 246.0 578.0 L 247.0 580.0 L 245.0 582.0 L 245.0 583.0 L 239.0 589.0 L 239.0 590.0 L 237.0 592.0 L 236.0 592.0 L 235.0 590.0 L 243.0 581.0 L 243.0 580.0 L 245.0 578.0 Z M 160.0 578.0 L 162.0 577.0 L 163.0 578.0 L 163.0 580.0 L 162.0 581.0 L 160.0 579.0 Z M 248.0 577.0 L 249.0 576.0 L 251.0 577.0 L 250.0 578.0 Z M 709.0 575.0 L 711.0 576.0 L 711.0 578.0 L 712.0 579.0 L 712.0 583.0 L 711.0 584.0 L 711.0 588.0 L 710.0 589.0 L 708.0 587.0 L 709.0 585.0 L 709.0 577.0 L 708.0 576.0 Z M 707.0 575.0 L 708.0 576.0 L 708.0 592.0 L 710.0 594.0 L 709.0 595.0 L 709.0 599.0 L 708.0 600.0 L 708.0 612.0 L 707.0 613.0 L 706.0 612.0 L 706.0 576.0 Z M 259.0 576.0 L 260.0 575.0 L 261.0 576.0 L 260.0 577.0 Z M 250.0 576.0 L 251.0 575.0 L 252.0 576.0 L 251.0 577.0 Z M 676.0 574.0 L 677.0 575.0 L 677.0 579.0 L 676.0 580.0 L 675.0 579.0 L 675.0 575.0 Z M 263.0 574.0 L 265.0 576.0 L 265.0 579.0 L 266.0 580.0 L 267.0 585.0 L 269.0 588.0 L 269.0 590.0 L 271.0 594.0 L 271.0 596.0 L 268.0 598.0 L 266.0 596.0 L 266.0 594.0 L 265.0 593.0 L 265.0 589.0 L 263.0 587.0 L 265.0 585.0 L 263.0 578.0 L 262.0 577.0 L 262.0 575.0 Z M 251.0 575.0 L 252.0 574.0 L 253.0 575.0 L 252.0 576.0 Z M 252.0 574.0 L 253.0 573.0 L 254.0 574.0 L 253.0 575.0 Z M 266.0 573.0 L 290.0 572.0 L 291.0 573.0 L 304.0 573.0 L 308.0 575.0 L 308.0 651.0 L 309.0 652.0 L 309.0 656.0 L 308.0 657.0 L 309.0 658.0 L 308.0 659.0 L 297.0 659.0 L 296.0 658.0 L 296.0 646.0 L 295.0 645.0 L 295.0 640.0 L 288.0 640.0 L 288.0 656.0 L 287.0 657.0 L 288.0 658.0 L 287.0 659.0 L 261.0 659.0 L 260.0 658.0 L 260.0 632.0 L 261.0 631.0 L 261.0 587.0 L 262.0 586.0 L 265.0 593.0 L 265.0 596.0 L 266.0 597.0 L 269.0 608.0 L 270.0 609.0 L 275.0 605.0 L 275.0 602.0 L 273.0 599.0 L 273.0 597.0 L 270.0 591.0 L 267.0 580.0 L 265.0 577.0 L 265.0 574.0 Z M 253.0 573.0 L 254.0 572.0 L 255.0 573.0 L 254.0 574.0 Z M 250.0 572.0 L 251.0 574.0 L 247.0 578.0 L 246.0 576.0 Z M 250.0 572.0 L 251.0 571.0 L 252.0 572.0 L 251.0 573.0 Z M 260.0 573.0 L 260.0 571.0 L 262.0 570.0 L 263.0 572.0 L 261.0 574.0 Z M 254.0 571.0 L 255.0 570.0 L 256.0 572.0 L 255.0 573.0 Z M 251.0 571.0 L 252.0 570.0 L 253.0 571.0 L 252.0 572.0 Z M 256.0 570.0 L 257.0 569.0 L 258.0 570.0 L 257.0 571.0 Z M 252.0 570.0 L 253.0 569.0 L 254.0 570.0 L 253.0 571.0 Z M 161.0 569.0 L 163.0 572.0 L 162.0 574.0 L 160.0 572.0 L 160.0 570.0 Z M 685.0 569.0 L 686.0 568.0 L 688.0 569.0 L 687.0 570.0 Z M 647.0 569.0 L 648.0 568.0 L 649.0 570.0 L 648.0 571.0 Z M 180.0 568.0 L 181.0 569.0 L 179.0 571.0 L 179.0 572.0 L 177.0 573.0 L 177.0 574.0 L 173.0 578.0 L 172.0 578.0 L 171.0 576.0 L 177.0 570.0 L 178.0 568.0 Z M 506.0 570.0 L 508.0 568.0 L 511.0 568.0 L 512.0 567.0 L 524.0 567.0 L 525.0 568.0 L 530.0 568.0 L 531.0 569.0 L 531.0 572.0 L 530.0 573.0 L 521.0 573.0 L 520.0 572.0 L 518.0 572.0 L 517.0 573.0 L 507.0 573.0 L 506.0 572.0 Z M 253.0 568.0 L 254.0 567.0 L 255.0 569.0 L 254.0 570.0 Z M 159.0 568.0 L 160.0 567.0 L 161.0 569.0 L 160.0 570.0 Z M 255.0 567.0 L 256.0 566.0 L 257.0 568.0 L 256.0 569.0 Z M 172.0 588.0 L 176.0 584.0 L 178.0 584.0 L 177.0 582.0 L 179.0 581.0 L 179.0 580.0 L 192.0 566.0 L 210.0 585.0 L 210.0 586.0 L 212.0 587.0 L 211.0 589.0 L 206.0 589.0 L 205.0 588.0 L 181.0 588.0 L 180.0 589.0 L 173.0 589.0 Z M 708.0 565.0 L 709.0 566.0 L 709.0 573.0 L 708.0 574.0 L 707.0 573.0 L 707.0 566.0 Z M 523.0 566.0 L 524.0 565.0 L 525.0 566.0 L 524.0 567.0 Z M 508.0 566.0 L 509.0 565.0 L 522.0 565.0 L 523.0 566.0 L 522.0 567.0 L 509.0 567.0 Z M 259.0 564.0 L 261.0 566.0 L 261.0 568.0 L 260.0 569.0 L 258.0 566.0 Z M 268.0 563.0 L 269.0 565.0 L 264.0 569.0 L 263.0 567.0 L 267.0 563.0 Z M 253.0 562.0 L 254.0 561.0 L 256.0 563.0 L 254.0 564.0 Z M 708.0 561.0 L 709.0 560.0 L 710.0 561.0 L 709.0 562.0 Z M 264.0 560.0 L 265.0 561.0 L 265.0 563.0 L 262.0 567.0 L 261.0 566.0 L 261.0 562.0 L 263.0 560.0 Z M 506.0 560.0 L 507.0 559.0 L 530.0 559.0 L 532.0 561.0 L 532.0 563.0 L 531.0 564.0 L 507.0 564.0 L 506.0 563.0 Z M 708.0 559.0 L 709.0 558.0 L 710.0 559.0 L 709.0 560.0 Z M 628.0 558.0 L 629.0 557.0 L 630.0 559.0 L 629.0 560.0 Z M 256.0 558.0 L 257.0 557.0 L 259.0 560.0 L 257.0 561.0 L 256.0 560.0 Z M 152.0 557.0 L 154.0 559.0 L 157.0 565.0 L 157.0 567.0 L 161.0 574.0 L 160.0 576.0 L 158.0 574.0 L 155.0 568.0 L 155.0 566.0 L 151.0 559.0 Z M 154.0 556.0 L 156.0 557.0 L 160.0 565.0 L 160.0 567.0 L 159.0 568.0 L 153.0 557.0 Z M 511.0 556.0 L 512.0 555.0 L 523.0 555.0 L 527.0 557.0 L 526.0 558.0 L 512.0 558.0 Z M 192.0 554.0 L 193.0 555.0 L 190.0 558.0 L 190.0 559.0 L 184.0 565.0 L 184.0 566.0 L 182.0 567.0 L 181.0 565.0 L 187.0 559.0 L 187.0 558.0 L 191.0 554.0 Z M 715.0 551.0 L 716.0 552.0 L 716.0 554.0 L 715.0 555.0 L 714.0 554.0 L 714.0 552.0 Z M 265.0 571.0 L 271.0 565.0 L 274.0 560.0 L 285.0 548.0 L 287.0 549.0 L 287.0 550.0 L 292.0 555.0 L 292.0 556.0 L 305.0 570.0 L 304.0 572.0 L 291.0 572.0 L 290.0 571.0 L 266.0 572.0 Z M 669.0 547.0 L 671.0 549.0 L 671.0 560.0 L 670.0 561.0 L 668.0 560.0 L 668.0 554.0 L 668.0 561.0 L 667.0 562.0 L 666.0 561.0 L 666.0 551.0 L 667.0 550.0 L 667.0 548.0 Z M 629.0 547.0 L 630.0 548.0 L 630.0 551.0 L 629.0 552.0 L 628.0 551.0 L 628.0 548.0 Z M 624.0 547.0 L 625.0 548.0 L 625.0 554.0 L 624.0 555.0 L 623.0 554.0 L 623.0 548.0 Z M 274.0 546.0 L 275.0 548.0 L 266.0 557.0 L 265.0 557.0 L 264.0 555.0 L 273.0 546.0 Z M 198.0 546.0 L 199.0 548.0 L 195.0 552.0 L 194.0 550.0 Z M 523.0 542.0 L 524.0 543.0 L 524.0 553.0 L 523.0 554.0 L 522.0 553.0 L 522.0 543.0 Z M 144.0 542.0 L 146.0 543.0 L 151.0 553.0 L 151.0 555.0 L 150.0 556.0 L 143.0 543.0 Z M 147.0 540.0 L 154.0 553.0 L 153.0 554.0 L 151.0 553.0 L 146.0 543.0 L 146.0 541.0 Z M 522.0 537.0 L 524.0 540.0 L 523.0 542.0 L 521.0 541.0 L 521.0 538.0 Z M 515.0 537.0 L 516.0 538.0 L 516.0 553.0 L 514.0 554.0 L 513.0 553.0 L 513.0 544.0 L 514.0 543.0 L 514.0 538.0 Z M 250.0 537.0 L 252.0 539.0 L 252.0 541.0 L 253.0 542.0 L 253.0 544.0 L 254.0 545.0 L 254.0 547.0 L 257.0 554.0 L 256.0 556.0 L 254.0 555.0 L 254.0 553.0 L 253.0 552.0 L 253.0 549.0 L 252.0 548.0 L 252.0 546.0 L 249.0 539.0 Z M 253.0 536.0 L 255.0 538.0 L 255.0 541.0 L 256.0 542.0 L 256.0 544.0 L 259.0 551.0 L 259.0 554.0 L 258.0 555.0 L 257.0 554.0 L 257.0 552.0 L 256.0 551.0 L 256.0 549.0 L 255.0 548.0 L 255.0 546.0 L 252.0 539.0 L 252.0 537.0 Z M 713.0 535.0 L 714.0 536.0 L 714.0 556.0 L 715.0 557.0 L 715.0 565.0 L 715.0 562.0 L 716.0 561.0 L 717.0 562.0 L 717.0 570.0 L 716.0 571.0 L 714.0 568.0 L 712.0 568.0 L 711.0 569.0 L 709.0 568.0 L 711.0 565.0 L 711.0 562.0 L 710.0 561.0 L 711.0 559.0 L 710.0 558.0 L 712.0 555.0 L 711.0 554.0 L 711.0 537.0 Z M 627.0 535.0 L 628.0 536.0 L 628.0 554.0 L 626.0 555.0 L 625.0 554.0 L 625.0 537.0 Z M 518.0 535.0 L 521.0 539.0 L 521.0 553.0 L 519.0 555.0 L 517.0 554.0 L 517.0 536.0 Z M 284.0 535.0 L 285.0 537.0 L 278.0 544.0 L 278.0 545.0 L 276.0 546.0 L 275.0 544.0 Z M 144.0 534.0 L 146.0 536.0 L 146.0 538.0 L 147.0 539.0 L 146.0 541.0 L 145.0 540.0 L 143.0 541.0 L 141.0 538.0 L 141.0 537.0 Z M 711.0 532.0 L 713.0 531.0 L 714.0 532.0 L 714.0 534.0 L 712.0 535.0 L 711.0 534.0 Z M 665.0 531.0 L 666.0 532.0 L 666.0 547.0 L 664.0 550.0 L 664.0 555.0 L 664.0 552.0 L 665.0 551.0 L 666.0 552.0 L 666.0 562.0 L 664.0 565.0 L 664.0 570.0 L 662.0 571.0 L 661.0 570.0 L 661.0 556.0 L 662.0 555.0 L 662.0 548.0 L 663.0 547.0 L 663.0 543.0 L 664.0 542.0 L 664.0 532.0 Z M 625.0 532.0 L 627.0 531.0 L 628.0 532.0 L 628.0 534.0 L 627.0 535.0 L 625.0 533.0 Z M 515.0 528.0 L 517.0 528.0 L 518.0 527.0 L 522.0 528.0 L 523.0 529.0 L 523.0 534.0 L 521.0 536.0 L 520.0 536.0 L 519.0 535.0 L 519.0 533.0 L 516.0 536.0 L 515.0 536.0 L 514.0 535.0 L 514.0 529.0 Z M 246.0 522.0 L 248.0 525.0 L 248.0 528.0 L 251.0 535.0 L 250.0 536.0 L 248.0 535.0 L 248.0 533.0 L 245.0 526.0 L 245.0 523.0 Z M 672.0 521.0 L 673.0 522.0 L 673.0 528.0 L 672.0 529.0 L 671.0 528.0 L 671.0 522.0 Z M 296.0 521.0 L 297.0 523.0 L 295.0 525.0 L 295.0 526.0 L 287.0 534.0 L 286.0 532.0 Z M 248.0 519.0 L 249.0 520.0 L 249.0 522.0 L 250.0 523.0 L 250.0 525.0 L 253.0 532.0 L 252.0 534.0 L 250.0 533.0 L 250.0 531.0 L 248.0 527.0 L 248.0 524.0 L 247.0 523.0 L 247.0 520.0 Z M 666.0 517.0 L 667.0 518.0 L 667.0 527.0 L 666.0 528.0 L 665.0 527.0 L 665.0 518.0 Z M 246.0 515.0 L 248.0 517.0 L 248.0 519.0 L 247.0 520.0 L 246.0 519.0 L 245.0 520.0 L 244.0 519.0 L 244.0 517.0 Z M 668.0 502.0 L 669.0 502.0 L 671.0 504.0 L 671.0 512.0 L 670.0 513.0 L 670.0 530.0 L 671.0 531.0 L 671.0 542.0 L 671.0 532.0 L 672.0 531.0 L 674.0 533.0 L 673.0 534.0 L 674.0 535.0 L 674.0 540.0 L 673.0 541.0 L 673.0 543.0 L 675.0 546.0 L 675.0 550.0 L 673.0 552.0 L 673.0 556.0 L 673.0 554.0 L 675.0 553.0 L 676.0 554.0 L 676.0 570.0 L 675.0 571.0 L 673.0 571.0 L 671.0 569.0 L 672.0 568.0 L 671.0 567.0 L 671.0 550.0 L 672.0 548.0 L 670.0 546.0 L 670.0 544.0 L 668.0 545.0 L 666.0 543.0 L 666.0 531.0 L 667.0 530.0 L 667.0 503.0 Z M 308.0 197.0 L 304.0 201.0 L 303.0 201.0 L 299.0 205.0 L 298.0 205.0 L 289.0 213.0 L 288.0 213.0 L 287.0 215.0 L 286.0 215.0 L 271.0 229.0 L 270.0 229.0 L 228.0 272.0 L 228.0 273.0 L 223.0 278.0 L 223.0 279.0 L 221.0 280.0 L 221.0 281.0 L 212.0 291.0 L 212.0 292.0 L 209.0 295.0 L 206.0 300.0 L 202.0 304.0 L 200.0 308.0 L 189.0 322.0 L 189.0 323.0 L 185.0 328.0 L 184.0 331.0 L 181.0 334.0 L 178.0 340.0 L 176.0 342.0 L 175.0 345.0 L 171.0 350.0 L 168.0 357.0 L 164.0 362.0 L 160.0 371.0 L 158.0 373.0 L 145.0 399.0 L 145.0 401.0 L 137.0 417.0 L 137.0 419.0 L 135.0 422.0 L 135.0 424.0 L 133.0 427.0 L 133.0 429.0 L 129.0 437.0 L 127.0 445.0 L 125.0 448.0 L 125.0 450.0 L 124.0 451.0 L 124.0 453.0 L 123.0 454.0 L 123.0 456.0 L 120.0 463.0 L 120.0 466.0 L 117.0 473.0 L 117.0 476.0 L 115.0 480.0 L 114.0 487.0 L 112.0 491.0 L 112.0 495.0 L 111.0 496.0 L 111.0 499.0 L 110.0 500.0 L 110.0 503.0 L 109.0 504.0 L 109.0 507.0 L 108.0 508.0 L 108.0 511.0 L 107.0 512.0 L 107.0 516.0 L 106.0 517.0 L 106.0 522.0 L 105.0 523.0 L 104.0 533.0 L 103.0 534.0 L 103.0 539.0 L 102.0 540.0 L 102.0 545.0 L 101.0 546.0 L 101.0 551.0 L 100.0 552.0 L 99.0 568.0 L 98.0 569.0 L 98.0 580.0 L 97.0 581.0 L 97.0 596.0 L 96.0 597.0 L 96.0 647.0 L 97.0 648.0 L 97.0 663.0 L 98.0 664.0 L 98.0 673.0 L 99.0 674.0 L 99.0 682.0 L 100.0 683.0 L 100.0 690.0 L 101.0 691.0 L 102.0 703.0 L 103.0 704.0 L 104.0 714.0 L 105.0 715.0 L 105.0 720.0 L 106.0 721.0 L 106.0 725.0 L 107.0 726.0 L 107.0 729.0 L 108.0 730.0 L 108.0 733.0 L 109.0 734.0 L 109.0 738.0 L 110.0 739.0 L 110.0 742.0 L 111.0 743.0 L 113.0 754.0 L 115.0 758.0 L 115.0 761.0 L 116.0 762.0 L 116.0 764.0 L 119.0 771.0 L 119.0 774.0 L 120.0 775.0 L 120.0 777.0 L 121.0 778.0 L 121.0 780.0 L 122.0 781.0 L 126.0 795.0 L 128.0 798.0 L 130.0 806.0 L 135.0 816.0 L 137.0 823.0 L 141.0 830.0 L 141.0 832.0 L 144.0 837.0 L 144.0 839.0 L 156.0 863.0 L 158.0 865.0 L 160.0 870.0 L 162.0 872.0 L 165.0 879.0 L 167.0 881.0 L 171.0 889.0 L 175.0 894.0 L 176.0 897.0 L 179.0 900.0 L 180.0 903.0 L 182.0 905.0 L 188.0 915.0 L 194.0 922.0 L 196.0 926.0 L 200.0 930.0 L 205.0 938.0 L 209.0 942.0 L 209.0 943.0 L 213.0 947.0 L 213.0 948.0 L 219.0 954.0 L 219.0 955.0 L 236.0 973.0 L 236.0 974.0 L 238.0 975.0 L 240.0 977.0 L 240.0 978.0 L 254.0 992.0 L 256.0 993.0 L 257.0 995.0 L 258.0 995.0 L 270.0 1007.0 L 271.0 1007.0 L 277.0 1013.0 L 278.0 1013.0 L 284.0 1019.0 L 285.0 1019.0 L 299.0 1031.0 L 301.0 1032.0 L 306.0 1032.0 L 305.0 1032.0 L 292.0 1021.0 L 291.0 1021.0 L 278.0 1009.0 L 277.0 1009.0 L 271.0 1003.0 L 270.0 1003.0 L 251.0 984.0 L 250.0 984.0 L 249.0 982.0 L 248.0 982.0 L 247.0 980.0 L 245.0 979.0 L 243.0 977.0 L 243.0 976.0 L 231.0 964.0 L 231.0 963.0 L 211.0 941.0 L 211.0 940.0 L 208.0 937.0 L 208.0 936.0 L 205.0 933.0 L 202.0 928.0 L 198.0 924.0 L 198.0 923.0 L 195.0 920.0 L 195.0 919.0 L 175.0 890.0 L 170.0 880.0 L 168.0 878.0 L 167.0 875.0 L 162.0 868.0 L 155.0 853.0 L 153.0 851.0 L 150.0 845.0 L 150.0 843.0 L 142.0 828.0 L 142.0 826.0 L 140.0 823.0 L 138.0 816.0 L 135.0 811.0 L 135.0 809.0 L 131.0 801.0 L 131.0 798.0 L 128.0 793.0 L 127.0 787.0 L 124.0 781.0 L 124.0 779.0 L 123.0 778.0 L 123.0 776.0 L 120.0 769.0 L 119.0 762.0 L 116.0 755.0 L 116.0 752.0 L 115.0 751.0 L 115.0 748.0 L 114.0 747.0 L 114.0 744.0 L 113.0 743.0 L 113.0 740.0 L 112.0 739.0 L 112.0 736.0 L 111.0 735.0 L 110.0 726.0 L 109.0 725.0 L 109.0 722.0 L 108.0 721.0 L 107.0 712.0 L 106.0 711.0 L 106.0 706.0 L 105.0 705.0 L 105.0 700.0 L 104.0 699.0 L 104.0 693.0 L 103.0 692.0 L 103.0 685.0 L 102.0 684.0 L 102.0 676.0 L 101.0 675.0 L 101.0 667.0 L 100.0 666.0 L 100.0 651.0 L 99.0 650.0 L 99.0 592.0 L 100.0 591.0 L 101.0 568.0 L 102.0 567.0 L 102.0 559.0 L 103.0 558.0 L 103.0 551.0 L 104.0 550.0 L 104.0 544.0 L 105.0 543.0 L 106.0 532.0 L 107.0 531.0 L 107.0 527.0 L 108.0 526.0 L 108.0 522.0 L 109.0 521.0 L 109.0 516.0 L 110.0 515.0 L 110.0 512.0 L 111.0 511.0 L 111.0 507.0 L 112.0 506.0 L 112.0 503.0 L 113.0 502.0 L 114.0 494.0 L 117.0 487.0 L 117.0 483.0 L 119.0 479.0 L 120.0 472.0 L 121.0 471.0 L 122.0 466.0 L 124.0 463.0 L 124.0 460.0 L 125.0 459.0 L 129.0 445.0 L 133.0 437.0 L 133.0 435.0 L 136.0 429.0 L 137.0 424.0 L 142.0 415.0 L 143.0 410.0 L 150.0 397.0 L 150.0 395.0 L 155.0 385.0 L 157.0 383.0 L 157.0 381.0 L 159.0 377.0 L 161.0 375.0 L 164.0 368.0 L 166.0 366.0 L 168.0 361.0 L 170.0 359.0 L 172.0 354.0 L 174.0 352.0 L 175.0 349.0 L 181.0 341.0 L 182.0 338.0 L 184.0 336.0 L 194.0 320.0 L 197.0 317.0 L 202.0 309.0 L 206.0 305.0 L 208.0 301.0 L 220.0 287.0 L 220.0 286.0 L 231.0 274.0 L 231.0 273.0 L 239.0 265.0 L 239.0 264.0 L 241.0 263.0 L 241.0 262.0 L 269.0 234.0 L 270.0 234.0 L 272.0 231.0 L 273.0 231.0 L 281.0 223.0 L 282.0 223.0 L 300.0 207.0 L 301.0 207.0 L 309.0 200.0 L 313.0 198.0 L 328.0 186.0 L 329.0 186.0 L 349.0 172.0 L 359.0 167.0 L 362.0 164.0 L 369.0 161.0 L 371.0 159.0 L 378.0 156.0 L 380.0 154.0 L 410.0 139.0 L 412.0 139.0 L 426.0 132.0 L 431.0 131.0 L 436.0 128.0 L 447.0 125.0 L 450.0 123.0 L 455.0 122.0 L 461.0 119.0 L 464.0 119.0 L 468.0 117.0 L 471.0 117.0 L 477.0 114.0 L 480.0 114.0 L 484.0 112.0 L 487.0 112.0 L 488.0 111.0 L 491.0 111.0 L 492.0 110.0 L 495.0 110.0 L 496.0 109.0 L 499.0 109.0 L 500.0 108.0 L 503.0 108.0 L 504.0 107.0 L 507.0 107.0 L 508.0 106.0 L 511.0 106.0 L 512.0 105.0 L 516.0 105.0 L 517.0 104.0 L 521.0 104.0 L 522.0 103.0 L 526.0 103.0 L 527.0 102.0 L 532.0 102.0 L 533.0 101.0 L 538.0 101.0 L 539.0 100.0 L 543.0 100.0 L 544.0 99.0 L 549.0 99.0 L 550.0 98.0 L 564.0 97.0 L 565.0 96.0 L 573.0 96.0 L 574.0 95.0 L 584.0 95.0 L 585.0 94.0 L 599.0 94.0 L 600.0 93.0 L 651.0 93.0 L 652.0 94.0 L 668.0 94.0 L 669.0 95.0 L 689.0 96.0 L 690.0 97.0 L 697.0 97.0 L 698.0 98.0 L 703.0 98.0 L 704.0 99.0 L 711.0 99.0 L 712.0 100.0 L 716.0 100.0 L 717.0 101.0 L 721.0 101.0 L 722.0 102.0 L 727.0 102.0 L 728.0 103.0 L 737.0 104.0 L 738.0 105.0 L 741.0 105.0 L 742.0 106.0 L 745.0 106.0 L 746.0 107.0 L 749.0 107.0 L 750.0 108.0 L 761.0 110.0 L 765.0 112.0 L 772.0 113.0 L 773.0 114.0 L 775.0 114.0 L 782.0 117.0 L 785.0 117.0 L 786.0 118.0 L 794.0 120.0 L 797.0 122.0 L 805.0 124.0 L 808.0 126.0 L 813.0 127.0 L 816.0 129.0 L 823.0 131.0 L 828.0 134.0 L 830.0 134.0 L 835.0 137.0 L 837.0 137.0 L 875.0 156.0 L 877.0 158.0 L 882.0 160.0 L 884.0 162.0 L 897.0 169.0 L 899.0 171.0 L 900.0 171.0 L 905.0 175.0 L 908.0 176.0 L 910.0 178.0 L 917.0 182.0 L 920.0 185.0 L 927.0 189.0 L 939.0 199.0 L 940.0 199.0 L 943.0 202.0 L 948.0 205.0 L 957.0 213.0 L 958.0 213.0 L 965.0 220.0 L 966.0 220.0 L 973.0 227.0 L 974.0 227.0 L 990.0 243.0 L 991.0 243.0 L 992.0 245.0 L 994.0 246.0 L 1012.0 265.0 L 1012.0 266.0 L 1020.0 274.0 L 1020.0 275.0 L 1035.0 292.0 L 1035.0 293.0 L 1038.0 296.0 L 1038.0 297.0 L 1041.0 300.0 L 1044.0 305.0 L 1048.0 309.0 L 1052.0 316.0 L 1056.0 320.0 L 1057.0 323.0 L 1060.0 326.0 L 1061.0 329.0 L 1069.0 340.0 L 1070.0 343.0 L 1074.0 348.0 L 1079.0 358.0 L 1081.0 360.0 L 1084.0 367.0 L 1086.0 369.0 L 1088.0 374.0 L 1090.0 376.0 L 1102.0 400.0 L 1104.0 407.0 L 1109.0 416.0 L 1109.0 418.0 L 1111.0 421.0 L 1113.0 428.0 L 1118.0 438.0 L 1118.0 440.0 L 1119.0 441.0 L 1123.0 455.0 L 1125.0 458.0 L 1125.0 461.0 L 1127.0 464.0 L 1128.0 471.0 L 1131.0 477.0 L 1131.0 480.0 L 1132.0 481.0 L 1132.0 484.0 L 1134.0 488.0 L 1134.0 491.0 L 1135.0 492.0 L 1135.0 495.0 L 1136.0 496.0 L 1136.0 500.0 L 1138.0 504.0 L 1138.0 508.0 L 1139.0 509.0 L 1139.0 512.0 L 1140.0 513.0 L 1140.0 517.0 L 1141.0 518.0 L 1142.0 527.0 L 1143.0 528.0 L 1143.0 533.0 L 1144.0 534.0 L 1144.0 539.0 L 1145.0 540.0 L 1145.0 546.0 L 1146.0 547.0 L 1146.0 553.0 L 1147.0 554.0 L 1147.0 560.0 L 1148.0 561.0 L 1148.0 568.0 L 1149.0 569.0 L 1149.0 579.0 L 1150.0 580.0 L 1150.0 595.0 L 1151.0 596.0 L 1151.0 647.0 L 1150.0 648.0 L 1150.0 663.0 L 1149.0 664.0 L 1149.0 674.0 L 1148.0 675.0 L 1148.0 682.0 L 1147.0 683.0 L 1147.0 690.0 L 1146.0 691.0 L 1146.0 696.0 L 1145.0 697.0 L 1144.0 709.0 L 1143.0 710.0 L 1143.0 714.0 L 1142.0 715.0 L 1142.0 719.0 L 1141.0 720.0 L 1140.0 729.0 L 1139.0 730.0 L 1139.0 733.0 L 1138.0 734.0 L 1138.0 738.0 L 1137.0 739.0 L 1135.0 750.0 L 1133.0 754.0 L 1132.0 761.0 L 1131.0 762.0 L 1131.0 764.0 L 1128.0 771.0 L 1128.0 774.0 L 1127.0 775.0 L 1123.0 789.0 L 1121.0 792.0 L 1119.0 800.0 L 1115.0 808.0 L 1114.0 813.0 L 1112.0 816.0 L 1110.0 823.0 L 1104.0 834.0 L 1104.0 836.0 L 1099.0 845.0 L 1099.0 847.0 L 1097.0 849.0 L 1096.0 853.0 L 1093.0 857.0 L 1091.0 862.0 L 1089.0 864.0 L 1084.0 875.0 L 1080.0 880.0 L 1078.0 885.0 L 1069.0 898.0 L 1068.0 901.0 L 1065.0 904.0 L 1064.0 907.0 L 1061.0 910.0 L 1052.0 924.0 L 1048.0 928.0 L 1048.0 929.0 L 1041.0 937.0 L 1038.0 942.0 L 1021.0 961.0 L 1021.0 962.0 L 1009.0 974.0 L 1009.0 975.0 L 978.0 1005.0 L 977.0 1005.0 L 970.0 1012.0 L 969.0 1012.0 L 964.0 1017.0 L 963.0 1017.0 L 959.0 1021.0 L 958.0 1021.0 L 954.0 1025.0 L 953.0 1025.0 L 948.0 1030.0 L 944.0 1032.0 L 950.0 1032.0 L 953.0 1029.0 L 954.0 1029.0 L 965.0 1019.0 L 966.0 1019.0 L 970.0 1015.0 L 971.0 1015.0 L 989.0 998.0 L 990.0 998.0 L 991.0 996.0 L 993.0 994.0 L 994.0 994.0 L 1014.0 974.0 L 1014.0 973.0 L 1031.0 955.0 L 1031.0 954.0 L 1048.0 934.0 L 1048.0 933.0 L 1057.0 922.0 L 1059.0 918.0 L 1062.0 915.0 L 1063.0 912.0 L 1066.0 909.0 L 1066.0 908.0 L 1076.0 894.0 L 1083.0 881.0 L 1085.0 879.0 L 1088.0 872.0 L 1090.0 870.0 L 1093.0 863.0 L 1095.0 861.0 L 1103.0 845.0 L 1103.0 843.0 L 1106.0 839.0 L 1108.0 832.0 L 1113.0 823.0 L 1113.0 821.0 L 1117.0 813.0 L 1117.0 811.0 L 1120.0 805.0 L 1120.0 803.0 L 1122.0 800.0 L 1125.0 789.0 L 1127.0 786.0 L 1128.0 780.0 L 1130.0 777.0 L 1130.0 774.0 L 1133.0 767.0 L 1133.0 764.0 L 1135.0 760.0 L 1135.0 757.0 L 1137.0 753.0 L 1137.0 750.0 L 1138.0 749.0 L 1138.0 746.0 L 1139.0 745.0 L 1139.0 742.0 L 1140.0 741.0 L 1140.0 738.0 L 1141.0 737.0 L 1142.0 728.0 L 1143.0 727.0 L 1144.0 719.0 L 1145.0 718.0 L 1145.0 714.0 L 1146.0 713.0 L 1146.0 708.0 L 1147.0 707.0 L 1147.0 702.0 L 1148.0 701.0 L 1148.0 696.0 L 1149.0 695.0 L 1149.0 688.0 L 1150.0 687.0 L 1150.0 680.0 L 1151.0 679.0 L 1152.0 659.0 L 1153.0 658.0 L 1153.0 640.0 L 1154.0 639.0 L 1154.0 606.0 L 1153.0 605.0 L 1153.0 584.0 L 1152.0 583.0 L 1151.0 564.0 L 1150.0 563.0 L 1150.0 556.0 L 1149.0 555.0 L 1149.0 549.0 L 1148.0 548.0 L 1148.0 542.0 L 1147.0 541.0 L 1147.0 536.0 L 1146.0 535.0 L 1145.0 524.0 L 1144.0 523.0 L 1144.0 520.0 L 1143.0 519.0 L 1143.0 515.0 L 1142.0 514.0 L 1141.0 505.0 L 1140.0 504.0 L 1138.0 493.0 L 1136.0 489.0 L 1134.0 478.0 L 1133.0 477.0 L 1133.0 475.0 L 1130.0 468.0 L 1130.0 465.0 L 1129.0 464.0 L 1125.0 450.0 L 1123.0 447.0 L 1121.0 439.0 L 1117.0 431.0 L 1116.0 426.0 L 1114.0 423.0 L 1114.0 421.0 L 1112.0 418.0 L 1110.0 411.0 L 1105.0 402.0 L 1105.0 400.0 L 1092.0 374.0 L 1090.0 372.0 L 1086.0 363.0 L 1084.0 361.0 L 1082.0 356.0 L 1080.0 354.0 L 1079.0 351.0 L 1077.0 349.0 L 1070.0 336.0 L 1067.0 333.0 L 1066.0 330.0 L 1063.0 327.0 L 1062.0 324.0 L 1059.0 321.0 L 1053.0 311.0 L 1046.0 303.0 L 1046.0 302.0 L 1043.0 299.0 L 1043.0 298.0 L 1040.0 295.0 L 1037.0 290.0 L 1033.0 286.0 L 1030.0 281.0 L 1023.0 274.0 L 1023.0 273.0 L 1006.0 255.0 L 1006.0 254.0 L 1004.0 252.0 L 1003.0 252.0 L 1002.0 250.0 L 988.0 236.0 L 987.0 236.0 L 966.0 216.0 L 965.0 216.0 L 949.0 202.0 L 948.0 202.0 L 940.0 195.0 L 936.0 193.0 L 925.0 184.0 L 924.0 184.0 L 907.0 172.0 L 904.0 171.0 L 901.0 168.0 L 898.0 167.0 L 893.0 163.0 L 886.0 160.0 L 881.0 156.0 L 870.0 151.0 L 868.0 149.0 L 852.0 141.0 L 850.0 141.0 L 846.0 139.0 L 844.0 137.0 L 842.0 137.0 L 828.0 130.0 L 826.0 130.0 L 823.0 128.0 L 821.0 128.0 L 813.0 124.0 L 808.0 123.0 L 805.0 121.0 L 797.0 119.0 L 794.0 117.0 L 788.0 116.0 L 787.0 115.0 L 785.0 115.0 L 784.0 114.0 L 782.0 114.0 L 775.0 111.0 L 768.0 110.0 L 761.0 107.0 L 757.0 107.0 L 756.0 106.0 L 750.0 105.0 L 749.0 104.0 L 745.0 104.0 L 744.0 103.0 L 741.0 103.0 L 740.0 102.0 L 736.0 102.0 L 735.0 101.0 L 732.0 101.0 L 731.0 100.0 L 728.0 100.0 L 727.0 99.0 L 722.0 99.0 L 721.0 98.0 L 716.0 98.0 L 715.0 97.0 L 710.0 97.0 L 709.0 96.0 L 703.0 96.0 L 702.0 95.0 L 696.0 95.0 L 695.0 94.0 L 688.0 94.0 L 687.0 93.0 L 680.0 93.0 L 679.0 92.0 L 667.0 92.0 L 666.0 91.0 L 650.0 91.0 L 649.0 90.0 L 604.0 90.0 L 603.0 91.0 L 588.0 91.0 L 587.0 92.0 L 576.0 92.0 L 575.0 93.0 L 568.0 93.0 L 567.0 94.0 L 560.0 94.0 L 559.0 95.0 L 552.0 95.0 L 551.0 96.0 L 545.0 96.0 L 544.0 97.0 L 533.0 98.0 L 532.0 99.0 L 528.0 99.0 L 527.0 100.0 L 523.0 100.0 L 522.0 101.0 L 513.0 102.0 L 512.0 103.0 L 509.0 103.0 L 508.0 104.0 L 504.0 104.0 L 503.0 105.0 L 500.0 105.0 L 499.0 106.0 L 488.0 108.0 L 481.0 111.0 L 478.0 111.0 L 477.0 112.0 L 474.0 112.0 L 467.0 115.0 L 464.0 115.0 L 461.0 117.0 L 459.0 117.0 L 458.0 118.0 L 444.0 122.0 L 441.0 124.0 L 436.0 125.0 L 431.0 128.0 L 426.0 129.0 L 412.0 136.0 L 410.0 136.0 L 395.0 144.0 L 393.0 144.0 L 389.0 146.0 L 387.0 148.0 L 374.0 154.0 L 367.0 159.0 L 360.0 162.0 L 353.0 167.0 L 350.0 168.0 L 348.0 170.0 L 323.0 186.0 L 319.0 190.0 L 312.0 194.0 L 309.0 197.0 Z"/>
  </g>
</svg>
